<?xml version="1.0" encoding="UTF-8"?>
<svg width="708px" height="391px" viewBox="0 0 708 391" version="1.1" xmlns="http://www.w3.org/2000/svg" xmlns:xlink="http://www.w3.org/1999/xlink">
    <!-- Generator: Sketch 47.1 (45422) - http://www.bohemiancoding.com/sketch -->
    <title>Page 1</title>
    <desc>Created with Sketch.</desc>
    <defs>
        <polygon id="path-1" points="0 390.66 707.474 390.66 707.474 0 0 0"></polygon>
    </defs>
    <g id="Page-1" stroke="none" stroke-width="1" fill="none" fill-rule="evenodd">
        <g>
            <path d="M548.3198,78.9334 C555.7488,74.3294 560.9388,67.3094 567.0348,61.3034 C585.8728,42.7454 604.3918,23.8664 623.0298,5.1064 C623.9598,4.1704 624.9358,3.2614 625.7298,2.2164 C627.5898,-0.2316 629.2918,-0.1666 631.4388,2.0004 C637.9888,8.6064 644.7058,15.0484 651.2798,21.6314 C668.6628,39.0374 685.9778,56.5094 703.3798,73.8964 C708.8128,79.3254 708.8218,79.1604 703.5068,84.4934 C674.2748,113.8144 645.0908,143.1844 615.8768,172.5224 C609.3058,179.1204 602.7968,185.7864 596.0098,192.1554 C593.3728,194.6324 593.6158,196.0494 596.0448,198.4734 C628.4538,230.8144 660.7658,263.2524 693.1078,295.6624 C697.1048,299.6664 701.0018,303.7864 705.1888,307.5814 C708.1038,310.2244 708.0038,312.2214 705.2618,314.9354 C688.4708,331.5564 671.7848,348.2844 655.0698,364.9824 C647.4238,372.6214 639.6978,380.1844 632.2068,387.9724 C629.4668,390.8194 627.9238,390.6634 625.0908,387.7914 C600.5468,362.9004 575.7988,338.2074 551.0968,313.4704 C550.3128,312.6854 549.6908,311.5304 548.2738,311.7294 C536.8578,299.1524 524.5468,287.4604 512.4658,275.5454 C512.4128,275.3764 512.4308,275.2114 512.5238,275.0564 C512.6038,255.7454 512.7558,236.4334 512.7048,217.1214 C512.6948,213.3004 513.8458,211.8184 517.8608,211.9064 C528.3468,212.1344 538.8418,211.8714 549.3318,212.0274 C552.2218,212.0704 553.9058,211.3014 555.0128,208.4934 C559.2238,197.8184 563.5268,187.1764 568.0218,176.6184 C569.6228,172.8594 568.9758,171.8294 564.7868,171.8824 C549.1348,172.0774 533.4768,171.7384 517.8298,172.0404 C512.7158,172.1394 512.6768,169.5194 512.7338,165.8704 C512.7888,162.3744 512.4298,159.5014 517.7068,159.5934 C535.0188,159.8924 552.3418,159.6034 569.6598,159.7474 C573.3318,159.7784 575.2588,158.7224 576.6418,155.0914 C581.0828,143.4334 585.9478,131.9354 590.7088,120.4004 C592.9558,114.9554 593.0158,114.9654 587.2658,114.9564 C562.9548,114.9204 538.6438,114.8944 514.3328,114.8634 C514.7568,112.3434 516.7988,111.0294 518.4018,109.3834 C528.3328,99.1914 538.8608,89.5874 548.3198,78.9334 Z" id="Fill-1" fill="#249CD7"></path>
            <g id="Group-5" transform="translate(0.000000, 0.660000)" fill="#E1101A">
                <path d="M128.6021,339.2979 C128.0071,339.9109 127.4121,340.5249 126.8191,341.1369 C126.8211,341.1369 126.5021,341.4529 126.5021,341.4529 C124.8991,343.0439 123.2951,344.6349 121.6921,346.2269 C121.3421,346.6269 120.9921,347.0269 120.6421,347.4279 L117.0871,351.0489 C114.9341,351.1299 113.4191,351.8649 113.6611,354.3979 C113.3541,354.6949 113.0481,354.9929 112.7411,355.2899 C110.5611,355.1489 109.5441,356.1999 109.6021,358.3529 C108.3041,359.6479 107.0071,360.9419 105.7091,362.2349 C105.3371,362.6069 104.9651,362.9789 104.5941,363.3499 L100.7131,367.2459 C98.5601,367.1839 97.5091,368.1999 97.6421,370.3779 C97.3421,370.6809 97.0431,370.9839 96.7441,371.2859 C94.5421,371.1539 93.5271,372.2199 93.6111,374.3929 C92.4331,375.6029 91.2551,376.8139 90.0771,378.0249 C89.0761,378.1519 88.5111,378.7169 88.3821,379.7179 C87.1681,380.8969 85.9561,382.0749 84.7421,383.2539 C82.5901,383.1699 81.5151,384.1619 81.6391,386.3549 C81.3251,386.6629 81.0101,386.9709 80.6961,387.2789 C78.9211,387.2689 77.1461,387.2579 75.3721,387.2479 C75.3721,387.2479 75.4021,387.2679 75.4031,387.2669 C75.3221,386.5279 74.8821,386.1639 74.1711,386.0809 C72.9491,384.9069 71.7261,383.7339 70.5031,382.5619 C70.4341,382.3459 70.2911,382.2009 70.0751,382.1289 C68.5191,380.5059 66.9631,378.8829 65.4081,377.2599 C64.7311,373.9289 62.6911,371.9509 59.4051,371.2089 C57.7681,369.6479 56.1311,368.0869 54.4951,366.5279 C54.4301,366.3329 54.2991,366.2019 54.1021,366.1359 C53.8701,365.8519 53.6381,365.5669 53.4051,365.2819 C53.5081,362.9919 52.2151,362.1219 50.1271,362.0629 C34.2281,346.2319 18.4051,330.3229 2.3681,314.6339 C-0.9009,311.4349 -0.3139,309.4899 2.6061,306.5739 C38.5351,270.6899 74.3271,234.6699 110.2891,198.8189 C113.4521,195.6639 113.8561,193.9279 110.4431,190.5359 C74.2131,154.5269 38.1851,118.3179 2.0221,82.2409 C-0.7239,79.5019 -0.6589,77.8239 2.1301,75.0539 C26.3331,51.0149 50.4101,26.8479 74.4301,2.6259 C77.0551,-0.0211 78.6211,-0.5381 81.6051,2.4829 C106.7501,27.9309 132.0921,53.1829 157.3751,78.4939 C158.4191,82.7989 162.2081,85.0199 164.9351,87.9149 C171.4601,94.8419 178.4641,101.3179 185.2831,107.9679 C186.2401,108.9009 187.3711,109.8039 186.9121,111.3049 C186.7911,111.6989 185.7511,112.1739 185.2871,112.0479 C179.5321,110.4789 178.8621,114.2439 177.1211,118.4689 C173.6941,126.7849 170.2431,135.1449 166.9491,143.4859 C162.3881,155.0399 157.2471,166.3519 152.7421,177.9319 C148.3551,189.2049 142.3121,199.8549 138.4851,211.3799 C134.3901,223.7119 127.5421,234.8089 123.1091,246.9759 C120.3271,254.6099 117.1611,262.1029 114.2221,269.6789 C112.5301,274.0379 113.5621,276.0459 117.7691,276.0659 C135.7581,276.1509 153.7481,276.0999 171.7361,276.0989 C174.3381,276.0989 176.2581,275.1599 176.8951,272.4019 C177.9141,267.9999 180.7281,264.3429 181.8951,259.9349 C182.7261,256.7989 184.9841,254.8439 188.9701,255.0619 C195.7781,255.4329 202.6221,255.1559 209.4511,255.1519 C211.4681,255.2249 211.2391,256.8249 211.4661,258.1149 L211.4731,258.1099 C209.6501,258.1999 208.5701,259.5119 207.4281,260.6549 C202.6841,265.4019 197.9751,270.1839 193.2561,274.9529 C188.6451,275.7139 187.3021,279.6209 185.4651,283.0539 L185.4051,283.1189 C185.0961,283.4269 184.7871,283.7349 184.4771,284.0429 L184.3981,284.1059 C181.4511,285.7719 177.6951,286.6229 177.4431,291.0059 L177.3651,291.0869 C172.7921,291.8239 171.3881,295.6969 169.4691,299.0619 L169.4231,299.1149 C167.5341,299.1909 166.5481,300.1689 166.4751,302.0619 L166.4211,302.1199 C163.6391,302.6349 161.2551,303.5509 161.4701,307.0669 L161.4231,307.1129 C157.5611,306.7239 157.0861,310.1149 155.5761,312.3509 C155.2871,312.6449 154.9981,312.9389 154.7081,313.2329 L153.6191,314.3109 C153.6191,314.3109 153.6661,314.2619 153.6651,314.2609 C153.2981,314.6069 152.9321,314.9519 152.5651,315.2969 C151.6041,316.2749 150.6431,317.2509 149.6821,318.2289 C147.1111,318.3649 145.7331,319.7029 145.5941,322.2889 C145.2881,322.6129 144.9821,322.9379 144.6761,323.2619 C142.2161,323.0959 141.5121,324.6499 141.3121,326.6969 C141.3021,326.9179 141.1871,327.0339 140.9671,327.0459 C140.7431,327.1389 140.5861,327.2979 140.4971,327.5229 C139.5671,328.4269 138.6381,329.3309 137.7081,330.2349 C137.3371,330.6099 136.9671,330.9829 136.5971,331.3559 C135.2941,332.6509 133.9931,333.9449 132.6901,335.2399 C130.6121,335.1839 129.5351,336.1369 129.6321,338.2739 C129.6321,338.2739 129.6321,338.2489 129.6321,338.2489 C129.2891,338.5979 128.9451,338.9479 128.6021,339.2979" id="Fill-3"></path>
            </g>
            <mask id="mask-2" fill="white">
                <use xlink:href="#path-1"></use>
            </mask>
            <g id="Clip-7"></g>
            <path d="M215.655,276.553 L304.335,276.553 L304.335,276.078 L215.655,276.078 L215.655,276.553 Z M193.254,275.612 C197.975,270.844 202.684,266.062 207.428,261.315 C208.57,260.172 209.65,258.86 211.473,258.768 C211.574,258.835 211.673,258.901 211.773,258.968 C211.671,258.904 211.569,258.84 211.466,258.775 C211.239,257.485 211.468,255.885 209.451,255.811 C209.492,255.48 209.533,255.15 209.574,254.819 C213.209,254.003 214.699,255.27 214.369,259.142 C214.06,262.777 214.645,266.5 214.208,270.107 C213.688,274.392 215.296,275.344 219.33,275.32 C246.622,275.162 273.916,275.151 301.208,275.321 C304.957,275.345 306.1,274.179 306.21,270.606 C306.546,259.632 307.145,248.666 307.642,237.697 C308.052,235.534 308.462,233.372 308.872,231.209 C309.381,230.858 309.891,230.507 310.4,230.155 C315.76,236.004 321.121,241.852 326.48,247.701 C328.515,255.372 330.781,262.991 332.486,270.734 C333.295,274.411 334.936,275.523 338.521,275.311 C343.15,275.039 347.808,275.282 352.454,275.303 C351.908,275.669 351.191,275.916 350.842,276.419 C343.641,286.804 333.515,294.396 324.832,303.351 C319.003,309.361 318.356,308.733 321.427,315.781 C315.833,312.622 312.323,315.239 309.382,319.951 C308.441,321.459 307.061,322.758 305.685,323.92 C295.07,332.888 286.489,343.863 276.494,353.441 C275.814,354.093 275.518,355.144 275.044,356.01 C274.357,355.935 273.668,355.861 272.981,355.787 C270.175,352.745 267.464,349.608 264.551,346.673 C241.18,323.125 217.771,299.615 194.374,276.095 C194,275.933 193.627,275.773 193.254,275.612 L193.254,275.612 Z" id="Fill-6" fill="#9C1D18" mask="url(#mask-2)"></path>
            <path d="M434.187,356.0711 C433.6,355.9731 433.013,355.8771 432.427,355.7801 C432.475,354.0731 431.256,353.1181 430.209,352.0691 C417.795,339.6351 405.347,327.2341 392.997,314.7381 C391.404,313.1271 389.751,312.6281 387.666,312.9361 C388.511,310.7471 388.231,309.3311 386.206,307.4541 C380.296,301.9771 374.881,295.9691 369.273,290.1681 C369.791,288.0411 369.326,286.4561 367.416,285.0201 C365.317,283.4421 363.583,281.3741 361.721,279.4881 C361.02,278.7761 360.338,277.9521 360.805,276.8621 C361.401,275.4721 362.724,275.6891 363.82,275.8421 C364.776,275.9771 365.671,276.5081 366.606,276.8261 C371.256,278.4131 375.003,276.4381 376.708,271.8761 C380.145,262.6751 380.95,252.6561 385.521,243.8201 C387.656,243.8421 389.353,243.3101 389.425,240.7271 C393.872,241.8091 395.091,237.8571 397.212,235.3561 C398.67,236.5321 398.639,237.9191 398.482,239.1951 C397.109,250.3231 401.263,261.1011 400.53,272.1831 C400.461,273.2081 400.72,274.1561 401.692,274.7441 C401.692,274.7441 401.611,274.6021 401.611,274.6031 C401.91,275.0001 402.208,275.3961 402.507,275.7941 L402.491,275.7811 C404.163,277.4301 406.276,276.7391 408.194,276.7421 C435.988,276.7861 463.781,276.7651 491.575,276.7851 C493.225,276.7861 495.326,276.3841 496.434,277.2151 C499.076,279.1911 500.256,277.8361 501.53,275.8411 C503.472,275.8531 505.414,275.8661 507.355,275.8791 C507.769,278.0681 506.232,278.9261 504.874,280.2611 C501.774,283.3061 498.002,286.0451 497.518,290.9441 C497.224,291.2351 496.931,291.5261 496.638,291.8171 C491.987,291.0461 489.986,295.2181 487.628,297.5831 C485.14,300.0801 480.905,302.1661 481.515,306.9431 C481.221,307.2351 480.928,307.5261 480.634,307.8181 C475.767,308.2261 472.926,311.9121 470.119,315.0691 C468.176,317.2541 464.172,318.7361 465.52,322.9881 C465.23,323.2781 464.939,323.5681 464.648,323.8571 C459.702,323.8741 450.449,333.1561 449.602,338.9491 C449.296,339.2591 448.991,339.5681 448.685,339.8771 C446.605,339.8541 444.276,339.1051 442.829,341.3141 C440.73,344.5171 437.897,347.0031 435.06,349.4681 C433.374,350.9341 432.855,352.2531 434.68,353.9001 C434.516,354.6241 434.351,355.3471 434.187,356.0711" id="Fill-8" fill="#0E6F9F" mask="url(#mask-2)"></path>
            <path d="M464.6479,323.8573 C464.9389,323.5683 465.2299,323.2783 465.5199,322.9873 C470.8259,318.1963 475.9609,313.2363 480.6339,307.8183 C480.9279,307.5263 481.2209,307.2353 481.5149,306.9423 C486.8759,302.2193 491.8959,297.1583 496.6379,291.8173 C496.9309,291.5263 497.2239,291.2353 497.5179,290.9433 C502.7779,286.0783 508.2199,281.3923 512.4639,275.5433 C524.5459,287.4613 536.8579,299.1523 548.2739,311.7293 C522.8239,337.3023 497.3689,362.8663 471.9469,388.4623 C470.2959,390.1243 469.2249,391.4273 466.8529,388.9863 C456.0829,377.9003 445.0959,367.0233 434.1869,356.0713 C434.3509,355.3473 434.5159,354.6243 434.6789,353.9003 C439.3469,349.2253 444.0159,344.5513 448.6849,339.8773 C448.9909,339.5683 449.2959,339.2583 449.6009,338.9493 C454.8839,334.1853 459.9319,329.1863 464.6479,323.8573" id="Fill-9" fill="#B1B2B2" mask="url(#mask-2)"></path>
            <path d="M548.3198,78.9334 C538.8608,89.5874 528.3328,99.1914 518.4018,109.3834 C516.7988,111.0294 514.7568,112.3434 514.3348,114.8634 C513.4228,114.8504 512.5088,114.8364 511.5948,114.8244 C508.3668,108.4474 502.4198,104.5814 497.6008,99.6734 C492.5598,94.0474 487.2728,88.6674 481.5868,83.6884 C476.6558,77.9524 471.2398,72.7024 465.6098,67.6624 C460.3038,62.3114 454.9988,56.9584 449.6928,51.6074 C448.5948,50.3924 447.4278,49.2324 446.4108,47.9544 C442.6418,43.2194 436.9028,40.2814 434.2238,34.5604 C445.0158,23.7164 455.8478,12.9104 466.5638,1.9914 C468.4068,0.1134 469.5088,-0.3906 471.6448,1.7684 C497.1448,27.5474 522.7458,53.2274 548.3198,78.9334" id="Fill-10" fill="#B1B2B2" mask="url(#mask-2)"></path>
            <path d="M194.374,276.0946 C217.771,299.6156 241.18,323.1246 264.551,346.6726 C267.464,349.6086 270.175,352.7446 272.981,355.7866 C261.976,366.8716 250.911,377.8986 240.02,389.0936 C237.913,391.2596 236.893,390.3426 235.291,388.7316 C224.274,377.6516 213.162,366.6656 202.136,355.5936 C187.712,341.1116 173.34,326.5776 158.951,312.0706 C159.778,310.6406 160.601,309.2066 161.423,307.7736 L161.47,307.7266 C163.858,306.8156 165.242,304.9006 166.421,302.7806 L166.475,302.7216 C167.867,302.1496 168.899,301.2166 169.423,299.7756 C169.423,299.7756 169.469,299.7216 169.469,299.7216 C172.355,297.3156 175.623,295.2856 177.365,291.7466 L177.443,291.6656 C180.627,290.2386 182.368,287.3566 184.398,284.7656 C184.398,284.7656 184.477,284.7026 184.477,284.7036 C185.102,284.7116 185.362,284.3546 185.405,283.7796 L185.465,283.7136 C188.435,281.1736 191.404,278.6336 194.374,276.0946" id="Fill-11" fill="#B3B1B0" mask="url(#mask-2)"></path>
            <path d="M158.6929,78.7987 C184.1809,53.2057 209.6939,27.6397 235.1109,1.9767 C237.3169,-0.2493 238.4859,-0.0263 240.5859,2.1197 C251.4049,13.1807 262.4049,24.0657 273.3419,35.0117 C273.3419,35.0117 273.4719,35.3917 273.4699,35.3947 C247.9579,60.8857 222.4459,86.3747 196.9339,111.8617 C196.1079,112.6877 195.1899,113.4587 195.5149,114.8307 C194.8289,114.7087 194.1419,114.5867 193.4559,114.4647 C191.8439,112.8047 190.2049,111.1687 188.6249,109.4787 C178.8659,99.0377 168.0059,89.6737 158.6929,78.7987" id="Fill-12" fill="#B3B1B0" mask="url(#mask-2)"></path>
            <path d="M387.6665,312.9364 C389.7515,312.6274 391.4035,313.1264 392.9965,314.7384 C405.3475,327.2344 417.7955,339.6354 430.2095,352.0694 C431.2565,353.1184 432.4755,354.0734 432.4275,355.7804 C424.1025,365.5204 414.5755,374.0904 405.6165,383.2104 C397.6675,391.3024 397.5035,391.2014 389.5835,383.3494 C379.0755,372.9324 368.6245,362.4574 358.1345,352.0224 C356.9785,350.8734 355.7215,349.8254 354.5115,348.7304 C354.1335,345.3044 357.0705,343.9664 358.9165,342.0784 C368.1305,332.6494 377.4755,323.3484 386.7735,314.0024 C387.0465,313.6724 387.3195,313.3424 387.5935,313.0124 L387.6665,312.9364 Z" id="Fill-13" fill="#229BD5" mask="url(#mask-2)"></path>
            <path d="M354.3384,43.7811 C356.5184,39.0331 360.8544,36.1591 364.3194,32.5761 C374.2314,22.3311 384.4834,12.4161 394.4294,2.2051 C396.6954,-0.1219 398.1364,-0.2909 400.4254,2.0581 C411.0804,12.9921 421.8624,23.8021 432.6004,34.6581 C432.5194,35.3381 432.4374,36.0171 432.3574,36.6981 C419.5934,49.3351 406.8274,61.9681 394.0674,74.6071 C392.5444,76.1171 391.2394,77.9731 388.7134,77.7801 C388.3434,77.7241 387.9724,77.6691 387.6014,77.6131 C387.2314,77.3471 386.8594,77.0831 386.4894,76.8171 C386.1704,76.4551 385.8514,76.0921 385.5314,75.7291 L385.5564,75.7441 C382.5594,71.1331 378.2294,67.8611 374.1234,64.3621 L373.9214,64.1681 C373.6504,63.8981 373.3814,63.6291 373.1104,63.3601 L372.9444,63.1551 C372.2894,61.5351 371.0064,60.5471 369.5264,59.7581 L369.5304,59.7631 C367.6614,56.2951 365.0424,53.5731 361.5344,51.7371 L361.5464,51.7491 C359.9004,48.4091 356.6944,46.4791 354.3384,43.7811" id="Fill-14" fill="#229BD5" mask="url(#mask-2)"></path>
            <path d="M275.0444,356.0096 C275.5184,355.1446 275.8144,354.0926 276.4934,353.4416 C286.4884,343.8636 295.0694,332.8876 305.6854,323.9196 C307.0614,322.7576 308.4404,321.4586 309.3824,319.9506 C312.3224,315.2386 315.8324,312.6216 321.4274,315.7806 C322.1244,316.4566 322.8214,317.1316 323.5194,317.8066 C323.8094,320.1466 325.1204,321.4696 327.4614,321.7686 L327.5234,321.8276 C327.6454,322.6136 328.1734,322.9626 328.8944,323.1046 C329.4304,323.6596 329.9654,324.2166 330.5004,324.7726 C331.6504,328.2586 334.0374,330.5316 337.4214,331.8266 L337.4594,331.8676 C337.5004,333.1406 338.1364,333.8076 339.4314,333.8026 L339.4824,333.8536 C339.4764,335.1576 340.1224,335.8226 341.4294,335.8426 L341.4434,335.8576 C341.4664,337.1786 342.1574,337.8036 343.4584,337.7916 C346.2814,341.4416 351.2684,343.3376 352.1714,348.5426 C339.1014,361.5766 325.9644,374.5466 313.0154,387.7016 C310.5044,390.2526 308.9344,390.6966 306.2614,387.9246 C296.4554,377.7596 286.4354,367.8006 276.4944,357.7646 C276.5564,356.8106 276.3154,356.1116 275.1604,356.1816 L275.0444,356.0096 Z" id="Fill-15" fill="#E1101A" mask="url(#mask-2)"></path>
            <path d="M280.4536,28.6805 C280.7746,28.3795 281.0956,28.0795 281.4176,27.7795 C286.0406,27.1105 288.6016,24.3285 289.5226,19.8675 C289.5226,19.8675 289.5846,19.8425 289.5836,19.8425 C294.0286,19.0195 296.5746,16.2685 297.5836,11.9585 L297.6556,11.8855 C298.5256,11.8055 299.1856,11.4835 299.2596,10.4895 L299.3236,10.7315 C299.3236,10.7315 299.2146,10.5065 299.2156,10.5075 C302.6566,10.7135 304.0426,7.7575 305.7516,5.7785 C308.7916,2.2595 310.9876,2.8885 313.6716,6.0605 C315.7466,8.5135 317.4236,11.6895 321.2806,11.8975 C321.2806,11.8975 321.3876,11.9975 321.3886,11.9975 C322.5896,16.4075 325.2806,19.3375 329.7916,20.4615 L329.6126,20.6705 C329.6126,20.6705 329.8246,20.4945 329.8226,20.4965 C333.1906,27.4155 338.4996,32.3825 345.2826,35.8665 C345.5356,35.9555 345.6826,36.1335 345.7236,36.4005 C345.9836,40.0115 348.4336,41.6715 351.4506,42.8265 C351.4506,42.8265 351.5816,42.7775 351.5806,42.7765 C350.9286,44.1655 350.2746,45.5545 349.6226,46.9445 C348.6066,47.9235 347.5916,48.9045 346.5756,49.8835 L345.5066,49.7455 C345.2356,48.5615 344.5876,47.2375 343.3736,48.3375 C342.0926,49.5005 344.4216,49.8745 344.5486,50.8905 C344.4146,51.3245 344.2816,51.7575 344.1476,52.1905 C341.9356,54.4135 339.7236,56.6375 337.5116,58.8615 L335.6566,59.0365 C333.8506,58.9825 333.4846,59.9125 334.0056,61.4515 C334.0386,61.6885 333.9446,61.8545 333.7246,61.9495 C332.1866,61.8395 331.5056,62.5415 331.7046,64.0785 C331.2786,64.6365 330.8526,65.1935 330.4276,65.7505 C326.4676,68.4345 322.5996,71.2145 320.2026,75.5315 C319.6106,75.9015 319.0196,76.2715 318.4286,76.6415 C315.8006,77.3235 314.1416,75.9405 312.4426,74.1535 C303.1076,64.3325 293.6866,54.5945 284.2966,44.8275 C284.1826,42.3835 282.9026,41.1045 280.4586,40.9905 C279.7376,40.2655 279.0166,39.5415 278.2966,38.8185 C276.2376,35.8825 279.5496,33.2285 278.7396,30.3585 C278.7396,30.3585 278.9766,30.1135 278.9786,30.1175 C280.3596,30.5465 280.3796,29.5865 280.4536,28.6805" id="Fill-16" fill="#E1101A" mask="url(#mask-2)"></path>
            <path d="M352.1714,348.5428 C351.2684,343.3378 346.2814,341.4408 343.4584,337.7928 C343.4954,336.4098 342.7884,335.8028 341.4434,335.8568 L341.4294,335.8428 C341.4784,334.4968 340.8794,333.7848 339.4834,333.8538 L339.4314,333.8028 C339.4964,332.4228 338.7554,331.8618 337.4594,331.8678 C337.4594,331.8678 337.4214,331.8268 337.4214,331.8278 C336.2814,328.3308 333.8964,326.0568 330.5004,324.7718 C329.9654,324.2168 329.4304,323.6598 328.8974,323.1048 C329.0644,322.0068 328.4024,321.7998 327.5244,321.8278 L327.4614,321.7688 C327.1274,319.4738 325.8194,318.1458 323.5194,317.8068 C322.8214,317.1318 322.1244,316.4568 321.4274,315.7808 C318.3564,308.7328 319.0034,309.3608 324.8314,303.3518 C333.5154,294.3968 343.6414,286.8038 350.8424,276.4188 C351.1914,275.9158 351.9074,275.6688 352.4534,275.3028 C352.8414,275.3618 353.2284,275.4218 353.6154,275.4808 C359.1014,280.0938 363.1074,286.2818 369.2724,290.1698 C374.8814,295.9698 380.2964,301.9778 386.2054,307.4538 C388.2314,309.3308 388.5114,310.7468 387.6664,312.9368 C387.6664,312.9368 387.5934,313.0128 387.5934,313.0118 C386.9254,313.0158 386.7114,313.3958 386.7744,314.0028 C377.4754,323.3488 368.1304,332.6488 358.9164,342.0778 C357.0704,343.9668 354.1334,345.3048 354.5114,348.7298 C353.7324,348.6678 352.9514,348.6048 352.1714,348.5428" id="Fill-17" fill="#363230" mask="url(#mask-2)"></path>
            <path d="M333.7241,61.9491 C333.9451,61.8541 334.0381,61.6881 334.0021,61.4481 C334.4951,61.2681 334.9931,61.0921 335.4891,60.9151 C336.7121,60.7711 337.5071,60.2061 337.5111,58.8611 C339.7231,56.6371 341.9361,54.4141 344.1491,52.1931 C345.9391,52.4551 346.3131,51.2271 346.5761,49.8851 C347.5911,48.9041 348.6071,47.9241 349.6211,46.9431 C351.8001,46.9691 352.4561,45.4671 352.8621,43.7131 C353.0571,43.6681 353.2521,43.6661 353.4491,43.7091 C354.6911,47.8581 356.6691,51.2621 361.5461,51.7491 L361.5351,51.7371 C361.8111,56.7931 364.4891,59.4561 369.5311,59.7631 L369.5261,59.7581 C369.4721,62.0911 369.3061,64.5381 372.9451,63.1551 C372.9451,63.1551 373.1111,63.3601 373.1091,63.3621 C372.9051,64.1121 373.1771,64.3801 373.9211,64.1681 C373.9211,64.1681 374.1231,64.3621 374.1211,64.3641 C374.0411,68.5941 380.8791,75.3971 385.5561,75.7441 L385.5321,75.7291 C385.8511,76.0921 386.1701,76.4551 386.4901,76.8171 C386.8601,77.0831 387.2311,77.3471 387.6011,77.6131 C386.1351,83.2341 379.5421,84.1791 377.2081,89.0071 C375.2591,93.0401 368.9261,93.8701 369.4131,99.6801 L369.3771,99.7191 C367.1181,99.6181 365.4501,100.2531 364.0891,102.3821 C361.2111,106.8891 355.9921,109.3131 353.2761,114.0371 C352.3801,113.9061 351.4841,113.7751 350.5881,113.6441 C349.5961,112.6731 348.6041,111.7021 347.6131,110.7311 C346.2121,107.4181 343.9151,105.0091 340.5291,103.6961 C340.2161,103.3831 339.9041,103.0701 339.5911,102.7571 C339.4911,101.5111 338.7821,100.8401 337.5811,100.6341 C333.6971,95.2271 328.3121,91.3301 323.6121,86.7431 C323.5051,85.5011 322.7861,84.8331 321.6031,84.6001 C321.2821,84.3021 320.9611,84.0021 320.6401,83.7041 C320.0421,80.9771 320.6731,78.3691 321.4051,75.7701 C325.6091,73.5081 328.7711,70.3061 330.4271,65.7511 C330.8531,65.1931 331.2791,64.6371 331.7031,64.0781 C332.7981,63.7691 333.5051,63.0911 333.7241,61.9491" id="Fill-18" fill="#363230" mask="url(#mask-2)"></path>
            <path d="M158.6929,78.7987 C168.0059,89.6737 178.8659,99.0377 188.6249,109.4787 C190.2049,111.1687 191.8439,112.8047 193.4549,114.4657 C190.9739,114.6417 188.4499,115.1927 186.0249,114.9067 C181.9139,114.4247 180.2519,116.3837 178.7829,119.9157 C157.8849,170.1897 136.8909,220.4227 115.7759,270.6057 C114.0669,274.6697 115.2269,275.3127 119.0239,275.2837 C136.1869,275.1557 153.3519,275.1297 170.5149,275.2457 C173.5569,275.2667 175.0339,274.1017 175.9709,271.3807 C177.5949,266.6617 179.5599,262.0607 181.1409,257.3297 C181.8459,255.2207 182.9399,254.5137 185.1009,254.5577 C193.2569,254.7267 201.4159,254.7447 209.5739,254.8197 C209.5329,255.1507 209.4919,255.4807 209.4509,255.8117 C202.6219,255.8167 195.7779,256.0927 188.9699,255.7217 C184.9849,255.5037 182.7259,257.4587 181.8959,260.5947 C180.7279,265.0027 177.9139,268.6597 176.8959,273.0627 C176.2579,275.8197 174.3379,276.7587 171.7359,276.7587 C153.7479,276.7597 135.7579,276.8107 117.7699,276.7257 C113.5619,276.7057 112.5299,274.6977 114.2219,270.3387 C117.1609,262.7627 120.3269,255.2697 123.1089,247.6357 C127.5429,235.4687 134.3899,224.3717 138.4849,212.0397 C142.3119,200.5147 148.3559,189.8647 152.7419,178.5917 C157.2469,167.0117 162.3879,155.6997 166.9489,144.1467 C170.2429,135.8047 173.6939,127.4447 177.1209,119.1287 C178.8619,114.9037 179.5319,111.1387 185.2869,112.7077 C185.7509,112.8337 186.7909,112.3597 186.9119,111.9647 C187.3709,110.4637 186.2399,109.5607 185.2829,108.6277 C178.4639,101.9777 171.4609,95.5017 164.9349,88.5747 C162.2089,85.6797 158.4199,83.4587 157.3759,79.1537 C157.8139,79.0357 158.2539,78.9167 158.6929,78.7987" id="Fill-19" fill="#C72F2B" mask="url(#mask-2)"></path>
            <path d="M321.2808,11.8978 C317.4238,11.6898 315.7468,8.5128 313.6718,6.0608 C310.9878,2.8878 308.7918,2.2598 305.7518,5.7788 C304.0428,7.7568 302.6568,10.7138 299.2158,10.5068 C301.0748,6.6498 304.8118,4.4458 307.4038,1.2268 C308.3058,0.1058 309.8568,-0.5782 310.8858,0.6598 C314.1578,4.5938 318.9918,7.0768 321.2808,11.8978" id="Fill-20" fill="#C72F2B" mask="url(#mask-2)"></path>
            <path d="M432.356,36.6971 C432.437,36.0171 432.519,35.3381 432.6,34.6581 C433.141,34.6251 433.683,34.5931 434.224,34.5601 C436.903,40.2811 442.642,43.2191 446.411,47.9541 C447.428,49.2321 448.595,50.3921 449.693,51.6071 L449.418,51.8681 C447.965,51.6661 445.851,52.0061 445.168,51.1721 C441.074,46.1831 435.613,42.4051 432.356,36.6971" id="Fill-21" fill="#23708D" mask="url(#mask-2)"></path>
            <path d="M345.2827,35.8661 C338.4997,32.3831 333.1907,27.4161 329.8227,20.4971 C335.5727,25.0201 340.8777,29.9901 345.2827,35.8661" id="Fill-22" fill="#C72F2B" mask="url(#mask-2)"></path>
            <path d="M329.7915,20.4618 C325.2805,19.3378 322.5895,16.4078 321.3885,11.9978 C324.7135,14.2978 327.7705,16.8648 329.7915,20.4618" id="Fill-23" fill="#C72F2B" mask="url(#mask-2)"></path>
            <path d="M361.5464,51.7489 C356.6694,51.2629 354.6914,47.8579 353.4484,43.7089 C353.7564,43.5909 354.0534,43.6159 354.3384,43.7819 C356.6944,46.4789 359.9004,48.4089 361.5464,51.7489" id="Fill-24" fill="#1F4155" mask="url(#mask-2)"></path>
            <path d="M289.5229,19.867 C288.6019,24.329 286.0409,27.11 281.4179,27.779 C283.8039,24.819 286.0359,21.7 289.5229,19.867" id="Fill-25" fill="#C72F2B" mask="url(#mask-2)"></path>
            <path d="M278.7397,30.3582 C279.5497,33.2282 276.2377,35.8822 278.2987,38.8182 C275.9167,38.7672 275.6077,35.7912 273.4717,35.3912 L273.3427,35.0112 C275.9027,34.3432 276.4197,31.3042 278.7397,30.3582" id="Fill-26" fill="#C72F2B" mask="url(#mask-2)"></path>
            <path d="M297.5835,11.9588 C296.5745,16.2688 294.0285,19.0198 289.5835,19.8428 C291.9005,16.8598 294.4625,14.1258 297.5835,11.9588" id="Fill-27" fill="#C72F2B" mask="url(#mask-2)"></path>
            <path d="M351.4507,42.826 C348.4337,41.672 345.9837,40.012 345.7227,36.4 C348.1537,38.078 350.5477,39.788 351.4507,42.826" id="Fill-28" fill="#C72F2B" mask="url(#mask-2)"></path>
            <path d="M161.4233,307.7733 C160.6003,309.2073 159.7773,310.6403 158.9503,312.0703 C157.5963,311.5713 156.7233,312.7793 155.5763,313.0103 C157.0863,310.7753 157.5613,307.3833 161.4233,307.7733" id="Fill-29" fill="#C72F2B" mask="url(#mask-2)"></path>
            <path d="M59.4048,371.869 C62.6918,372.611 64.7318,374.589 65.4078,377.92 C62.7828,376.521 60.7198,374.566 59.4048,371.869" id="Fill-30" fill="#C72F2B" mask="url(#mask-2)"></path>
            <path d="M75.3716,387.908 C77.1466,387.918 78.9216,387.929 80.6966,387.939 C78.8996,391.488 77.1236,391.656 75.3716,387.908" id="Fill-31" fill="#C72F2B" mask="url(#mask-2)"></path>
            <path d="M145.5942,322.9491 C145.7332,320.3631 147.1112,319.0251 149.6822,318.8881 C148.8022,320.7271 147.5352,322.1781 145.5942,322.9491" id="Fill-32" fill="#C72F2B" mask="url(#mask-2)"></path>
            <path d="M141.312,327.3573 C141.512,325.3093 142.216,323.7553 144.676,323.9213 C144.069,325.5703 143.018,326.7843 141.312,327.3573" id="Fill-33" fill="#C72F2B" mask="url(#mask-2)"></path>
            <path d="M50.127,362.7225 C52.215,362.7825 53.508,363.6525 53.405,365.9425 C51.951,365.2375 50.593,364.4345 50.127,362.7225" id="Fill-34" fill="#C72F2B" mask="url(#mask-2)"></path>
            <path d="M113.6611,355.0575 C113.4191,352.5255 114.9331,351.7895 117.0871,351.7085 C116.5021,353.3955 115.2491,354.3985 113.6611,355.0575" id="Fill-35" fill="#C72F2B" mask="url(#mask-2)"></path>
            <path d="M81.6387,387.0145 C81.5147,384.8225 82.5907,383.8295 84.7417,383.9135 C84.2267,385.4665 83.1877,386.4945 81.6387,387.0145" id="Fill-36" fill="#C72F2B" mask="url(#mask-2)"></path>
            <path d="M93.6108,375.0526 C93.5268,372.8796 94.5428,371.8146 96.7438,371.9466 C96.2148,373.5016 95.1688,374.5356 93.6108,375.0526" id="Fill-37" fill="#C72F2B" mask="url(#mask-2)"></path>
            <path d="M129.6323,338.9334 C129.5353,336.7964 130.6123,335.8434 132.6903,335.9004 C132.1913,337.4354 131.1883,338.4634 129.6323,338.9334" id="Fill-38" fill="#C72F2B" mask="url(#mask-2)"></path>
            <path d="M97.6416,371.0379 C97.5086,368.8599 98.5596,367.8439 100.7136,367.9059 C100.2036,369.4539 99.1826,370.5009 97.6416,371.0379" id="Fill-39" fill="#C72F2B" mask="url(#mask-2)"></path>
            <path d="M109.6016,359.0125 C109.5436,356.8605 110.5606,355.8085 112.7416,355.9495 C112.2076,357.4965 111.1556,358.5125 109.6016,359.0125" id="Fill-40" fill="#C72F2B" mask="url(#mask-2)"></path>
            <path d="M352.8618,43.7127 C352.4568,45.4667 351.7998,46.9687 349.6218,46.9427 C350.2748,45.5547 350.9278,44.1657 351.5808,42.7757 C352.0078,43.0887 352.4348,43.4007 352.8618,43.7127" id="Fill-41" fill="#9C1D18" mask="url(#mask-2)"></path>
            <path d="M88.3818,380.3778 C88.5108,379.3768 89.0758,378.8128 90.0768,378.6848 C89.9408,379.6768 89.3768,380.2428 88.3818,380.3778" id="Fill-42" fill="#C72F2B" mask="url(#mask-2)"></path>
            <path d="M280.4536,28.6805 C280.3796,29.5865 280.3596,30.5465 278.9786,30.1175 C279.4696,29.6355 279.9616,29.1585 280.4536,28.6805" id="Fill-43" fill="#C72F2B" mask="url(#mask-2)"></path>
            <path d="M275.1606,356.1815 C276.3146,356.1115 276.5566,356.8105 276.4946,357.7645 C275.5996,357.6175 275.2356,357.0205 275.1606,356.1815" id="Fill-44" fill="#9C1D18" mask="url(#mask-2)"></path>
            <path d="M299.2593,10.4891 C299.1863,11.4841 298.5263,11.8051 297.6553,11.8851 C297.8283,11.0041 298.4123,10.5951 299.2593,10.4891" id="Fill-45" fill="#C72F2B" mask="url(#mask-2)"></path>
            <path d="M74.1709,386.7411 C74.8819,386.8241 75.3219,387.1881 75.4029,387.9271 C74.7099,387.8251 74.0639,387.6751 74.1709,386.7411" id="Fill-46" fill="#C72F2B" mask="url(#mask-2)"></path>
            <path d="M153.6187,314.9705 L154.7087,313.8925 L153.6187,314.9705 Z" id="Fill-47" fill="#C72F2B" mask="url(#mask-2)"></path>
            <path d="M152.5649,315.9569 C152.9319,315.6119 153.2979,315.2669 153.6659,314.9209 C153.2989,315.2669 152.9319,315.6119 152.5649,315.9569" id="Fill-48" fill="#C72F2B" mask="url(#mask-2)"></path>
            <path d="M140.4966,328.1825 C140.5866,327.9575 140.7436,327.7985 140.9676,327.7055 C140.9666,327.7055 140.9256,328.1435 140.9256,328.1435 L140.4966,328.1825 Z" id="Fill-49" fill="#C72F2B" mask="url(#mask-2)"></path>
            <path d="M136.5967,332.0155 C136.9677,331.6425 137.3377,331.2695 137.7087,330.8955 C137.3377,331.2695 136.9677,331.6425 136.5967,332.0155" id="Fill-50" fill="#C72F2B" mask="url(#mask-2)"></path>
            <path d="M70.0747,382.7889 C70.2907,382.8609 70.4337,383.0059 70.5037,383.2219 C70.5037,383.2199 70.0907,383.2009 70.0907,383.2009 L70.0747,382.7889 Z" id="Fill-51" fill="#C72F2B" mask="url(#mask-2)"></path>
            <path d="M54.1025,366.7957 C54.2985,366.8617 54.4295,366.9927 54.4945,367.1887 C54.4945,367.1867 54.0995,367.1907 54.0995,367.1907 L54.1025,366.7957 Z" id="Fill-52" fill="#C72F2B" mask="url(#mask-2)"></path>
            <path d="M104.5938,364.0096 C104.9658,363.6386 105.3378,363.2666 105.7098,362.8956 C105.3378,363.2666 104.9658,363.6386 104.5938,364.0096" id="Fill-53" fill="#C72F2B" mask="url(#mask-2)"></path>
            <path d="M128.6021,339.9579 C128.9451,339.6079 129.2891,339.2579 129.6321,338.9089 C129.2891,339.2589 128.9461,339.6079 128.6021,339.9579" id="Fill-54" fill="#C72F2B" mask="url(#mask-2)"></path>
            <path d="M126.5024,342.1131 C126.5024,342.1131 126.8214,341.7971 126.8194,341.7971 C126.8164,341.7971 126.8604,342.1521 126.8604,342.1521 L126.5024,342.1131 Z" id="Fill-55" fill="#C72F2B" mask="url(#mask-2)"></path>
            <path d="M120.6421,348.0877 C120.9921,347.6877 121.3421,347.2867 121.6921,346.8867 C121.3421,347.2867 120.9921,347.6877 120.6421,348.0877" id="Fill-56" fill="#C72F2B" mask="url(#mask-2)"></path>
            <path d="M214.2495,168.577 C213.8685,168.51 213.4875,168.442 213.1065,168.375 C209.2385,179.121 205.3495,189.86 201.5065,200.616 C196.8815,213.556 197.5155,214.246 211.5395,212.551 C213.7515,212.283 214.2765,211.331 214.2705,209.361 C214.2305,195.766 214.2495,182.172 214.2495,168.577 M209.5745,254.819 C201.4165,254.745 193.2565,254.726 185.1015,254.557 C182.9395,254.514 181.8465,255.221 181.1415,257.33 C179.5605,262.06 177.5945,266.662 175.9705,271.381 C175.0345,274.101 173.5575,275.266 170.5155,275.246 C153.3525,275.13 136.1865,275.156 119.0235,275.284 C115.2265,275.312 114.0665,274.67 115.7765,270.605 C136.8905,220.423 157.8855,170.189 178.7835,119.916 C180.2515,116.384 181.9145,114.425 186.0245,114.907 C188.4505,115.192 190.9745,114.641 193.4545,114.466 C194.1425,114.587 194.8285,114.709 195.5145,114.831 C216.4715,114.81 237.4285,114.791 258.3875,114.772 C259.5255,116.592 259.1885,118.627 259.1905,120.595 C259.2025,133.369 259.1815,146.142 259.1775,158.917 C259.1735,173.314 259.1765,187.713 259.1765,202.111 C261.2225,196.063 263.1105,190.089 263.2055,183.772 C264.0685,179.189 265.1505,174.639 265.2225,169.94 L265.4365,168.367 C268.5735,150.921 271.5445,133.449 273.5635,115.831 L273.5505,115.878 C274.2695,115.075 275.2125,114.813 276.2405,114.813 C293.7085,114.813 311.1765,114.865 328.6435,114.773 C331.3125,114.76 331.9595,116.143 332.4985,118.3 C333.7005,123.108 334.3805,128.063 336.3675,132.662 C336.4915,133.816 336.4855,135 336.7555,136.118 C342.0945,158.338 347.4655,180.551 352.8305,202.765 C353.1135,202.809 353.3975,202.854 353.6825,202.899 C359.6155,179.502 365.5505,156.105 371.4835,132.709 C372.6085,128.213 373.8175,123.735 374.8285,119.214 C375.4825,116.285 376.6525,114.816 380.1035,114.857 C398.5035,115.071 416.9045,115 435.3065,115.027 C435.2915,115.392 435.4425,115.667 435.7595,115.849 C439.1315,137.768 442.5025,159.687 445.8735,181.607 C447.1705,190.244 448.4685,198.881 449.7655,207.518 C450.1755,207.479 450.5865,207.441 450.9975,207.402 C450.7635,198.204 451.7325,189.005 450.4285,179.806 C450.5445,179.483 450.5325,179.164 450.3945,178.848 C450.4785,159.537 450.7215,140.223 450.5305,120.913 C450.4835,116.232 451.5005,114.659 456.4695,114.745 C471.4455,115.005 486.4325,114.687 501.4145,114.595 C502.8025,114.59 504.1885,114.584 505.5765,114.579 C507.5825,114.661 509.5895,114.742 511.5955,114.824 C512.5095,114.837 513.4225,114.85 514.3345,114.863 C538.6445,114.894 562.9545,114.921 587.2665,114.957 C593.0165,114.966 592.9555,114.956 590.7085,120.4 C585.9475,131.935 581.0825,143.433 576.6425,155.092 C575.2595,158.723 573.3315,159.778 569.6595,159.748 C552.3425,159.603 535.0195,159.892 517.7065,159.594 C512.4305,159.502 512.7885,162.375 512.7335,165.87 C512.6775,169.519 512.7165,172.14 517.8295,172.041 C533.4775,171.738 549.1355,172.077 564.7865,171.883 C568.9765,171.83 569.6225,172.859 568.0215,176.618 C563.5265,187.177 559.2245,197.818 555.0135,208.493 C553.9055,211.302 552.2225,212.07 549.3315,212.027 C538.8425,211.872 528.3475,212.135 517.8605,211.906 C513.8465,211.818 512.6945,213.301 512.7045,217.122 C512.7555,236.433 512.6035,255.745 512.5225,275.056 C510.8265,275.133 509.1295,275.208 507.4335,275.284 C506.7815,275.164 506.1305,274.939 505.4785,274.939 C471.1545,274.952 436.8305,274.983 402.5065,275.014 C402.2545,274.774 401.9565,274.638 401.6105,274.602 C401.6105,274.602 401.6915,274.744 401.6915,274.743 C401.1805,262.369 400.6685,249.996 400.1565,237.623 C400.6225,235.268 400.7525,232.931 399.7785,230.655 C399.7465,230.345 399.6765,230.043 399.5675,229.75 C398.8825,215.167 398.1965,200.584 397.5105,186.001 C393.1505,199.431 389.6725,212.888 386.5775,226.431 C385.1875,232.514 382.3355,238.324 382.8255,244.795 C381.4845,246.556 380.9005,248.614 380.3835,250.726 C378.7275,257.486 376.8785,264.201 375.3705,270.992 C374.6775,274.114 373.2915,275.28 369.9995,275.208 C364.5465,275.088 359.0615,274.633 353.6155,275.481 C353.2285,275.422 352.8415,275.362 352.4535,275.303 C347.8085,275.282 343.1495,275.039 338.5205,275.311 C334.9365,275.523 333.2955,274.411 332.4855,270.734 C330.7805,262.991 328.5155,255.372 326.4805,247.702 C324.8055,240.424 323.2125,233.124 321.4365,225.87 C318.0975,212.23 314.6515,198.618 311.2515,184.994 C310.0005,196.037 309.3005,206.959 308.6605,217.885 C308.2725,224.486 307.9785,231.093 307.6425,237.697 C307.1455,248.666 306.5465,259.632 306.2105,270.606 C306.1005,274.179 304.9565,275.345 301.2075,275.321 C273.9155,275.151 246.6215,275.162 219.3295,275.32 C215.2965,275.344 213.6885,274.392 214.2075,270.107 C214.6445,266.5 214.0595,262.777 214.3695,259.142 C214.6985,255.27 213.2095,254.003 209.5745,254.819" id="Fill-57" fill="#FDFCFC" mask="url(#mask-2)"></path>
            <path d="M507.4331,275.284 C509.1291,275.208 510.8271,275.133 512.5231,275.056 C512.4311,275.212 512.4121,275.377 512.4651,275.546 C508.2201,281.392 502.7781,286.078 497.5181,290.943 C498.0021,286.045 501.7741,283.306 504.8731,280.262 C506.2321,278.927 507.7691,278.068 507.3571,275.879 C507.4881,275.693 507.5131,275.496 507.4331,275.284" id="Fill-58" fill="#23708D" mask="url(#mask-2)"></path>
            <path d="M194.374,276.0946 C191.404,278.6336 188.435,281.1736 185.465,283.7136 C187.302,280.2816 188.645,276.3736 193.256,275.6136 C193.627,275.7736 194,275.9336 194.374,276.0946" id="Fill-59" fill="#C72F2B" mask="url(#mask-2)"></path>
            <path d="M177.3652,291.7469 C175.6222,295.2859 172.3552,297.3149 169.4692,299.7219 C171.3872,296.3569 172.7922,292.4839 177.3652,291.7469" id="Fill-60" fill="#C72F2B" mask="url(#mask-2)"></path>
            <path d="M184.3979,284.7655 C182.3679,287.3565 180.6269,290.2385 177.4429,291.6655 C177.6949,287.2835 181.4509,286.4315 184.3979,284.7655" id="Fill-61" fill="#C72F2B" mask="url(#mask-2)"></path>
            <path d="M166.4214,302.7801 C165.2424,304.9001 163.8584,306.8151 161.4704,307.7261 C161.2544,304.2111 163.6384,303.2951 166.4214,302.7801" id="Fill-62" fill="#C72F2B" mask="url(#mask-2)"></path>
            <path d="M169.4233,299.7752 C168.8993,301.2162 167.8663,302.1492 166.4753,302.7212 C166.5483,300.8292 167.5333,299.8502 169.4233,299.7752" id="Fill-63" fill="#C72F2B" mask="url(#mask-2)"></path>
            <path d="M185.4053,283.7791 C185.3623,284.3541 185.1013,284.7121 184.4773,284.7041 C184.7863,284.3951 185.0963,284.0871 185.4053,283.7791" id="Fill-64" fill="#C72F2B" mask="url(#mask-2)"></path>
            <path d="M307.6421,237.6971 C307.9781,231.0931 308.2731,224.4861 308.6611,217.8851 C309.3001,206.9591 310.0001,196.0371 311.2511,184.9941 C314.6521,198.6181 318.0971,212.2301 321.4361,225.8701 C323.2121,233.1241 324.8051,240.4241 326.4811,247.7021 C321.1211,241.8521 315.7601,236.0041 310.4001,230.1551 C309.8911,230.5071 309.3811,230.8581 308.8711,231.2091 C308.4621,233.3721 308.0521,235.5341 307.6421,237.6971" id="Fill-65" fill="#B3B1B0" mask="url(#mask-2)"></path>
            <polygon id="Fill-66" fill="#841912" mask="url(#mask-2)" points="215.655 276.553 304.335 276.553 304.335 276.078 215.655 276.078"></polygon>
            <path d="M211.4663,258.7752 C211.5693,258.8392 211.6713,258.9042 211.7733,258.9672 C211.6733,258.9012 211.5733,258.8352 211.4733,258.7682 C211.4733,258.7692 211.4663,258.7752 211.4663,258.7752" id="Fill-67" fill="#C72F2B" mask="url(#mask-2)"></path>
            <path d="M353.6157,275.4813 C359.0617,274.6323 364.5467,275.0873 369.9997,275.2083 C373.2917,275.2803 374.6777,274.1143 375.3707,270.9923 C376.8787,264.2013 378.7267,257.4863 380.3837,250.7263 C380.9007,248.6143 381.4847,246.5553 382.8237,244.7963 C383.6797,244.4253 384.5387,244.0523 385.3967,243.6793 L385.5207,243.8203 C380.9497,252.6563 380.1447,262.6753 376.7087,271.8763 C375.0037,276.4383 371.2567,278.4133 366.6057,276.8263 C365.6717,276.5073 364.7757,275.9773 363.8197,275.8423 C362.7237,275.6893 361.4007,275.4723 360.8047,276.8623 C360.3387,277.9523 361.0197,278.7763 361.7207,279.4883 C363.5827,281.3743 365.3167,283.4423 367.4157,285.0203 C369.3257,286.4563 369.7907,288.0413 369.2727,290.1683 C363.1067,286.2823 359.1007,280.0933 353.6157,275.4813" id="Fill-68" fill="#23708D" mask="url(#mask-2)"></path>
            <path d="M400.1567,237.6229 C400.6687,249.9959 401.1797,262.3689 401.6917,274.7429 C400.7197,274.1559 400.4617,273.2079 400.5297,272.1839 C401.2627,261.1019 397.1087,250.3229 398.4817,239.1949 C398.6387,237.9189 398.6707,236.5319 397.2127,235.3559 C395.0917,237.8569 393.8717,241.8099 389.4257,240.7269 L388.9597,240.2619 C392.0017,236.2579 395.4167,232.6329 399.5687,229.7509 C399.6767,230.0429 399.7467,230.3449 399.7787,230.6549 C399.4117,233.0049 399.1657,235.3479 400.1567,237.6229" id="Fill-69" fill="#23708D" mask="url(#mask-2)"></path>
            <path d="M507.4331,275.284 C507.5131,275.496 507.4881,275.693 507.3571,275.879 C505.4131,275.866 503.4721,275.853 501.5301,275.84 C468.5161,275.82 435.5031,275.801 402.4911,275.781 C402.4911,275.781 402.5071,275.794 402.5071,275.793 C402.4681,275.533 402.4681,275.273 402.5061,275.013 C436.8301,274.983 471.1551,274.952 505.4791,274.939 C506.1301,274.939 506.7821,275.164 507.4331,275.284" id="Fill-70" fill="#249CD7" mask="url(#mask-2)"></path>
            <path d="M402.4907,275.7811 C435.5037,275.8011 468.5157,275.8201 501.5297,275.8401 C500.2567,277.8361 499.0757,279.1911 496.4337,277.2151 C495.3257,276.3851 493.2247,276.7861 491.5747,276.7851 C463.7807,276.7651 435.9877,276.7861 408.1937,276.7421 C406.2757,276.7391 404.1627,277.4301 402.4907,275.7811" id="Fill-71" fill="#23708D" mask="url(#mask-2)"></path>
            <path d="M448.6851,339.8768 C444.0161,344.5518 439.3471,349.2258 434.6791,353.8998 C432.8551,352.2528 433.3731,350.9348 435.0601,349.4688 C437.8971,347.0028 440.7301,344.5178 442.8291,341.3138 C444.2761,339.1058 446.6051,339.8548 448.6851,339.8768" id="Fill-72" fill="#23708D" mask="url(#mask-2)"></path>
            <path d="M464.6479,323.8573 C459.9319,329.1863 454.8839,334.1853 449.6009,338.9493 C450.4489,333.1563 459.7019,323.8743 464.6479,323.8573" id="Fill-73" fill="#23708D" mask="url(#mask-2)"></path>
            <path d="M496.6382,291.8172 C491.8962,297.1582 486.8752,302.2192 481.5152,306.9422 C480.9052,302.1662 485.1402,300.0802 487.6282,297.5832 C489.9862,295.2182 491.9872,291.0462 496.6382,291.8172" id="Fill-74" fill="#23708D" mask="url(#mask-2)"></path>
            <path d="M480.6343,307.8182 C475.9603,313.2362 470.8253,318.1962 465.5203,322.9872 C464.1723,318.7362 468.1763,317.2542 470.1183,315.0692 C472.9263,311.9122 475.7673,308.2262 480.6343,307.8182" id="Fill-75" fill="#23708D" mask="url(#mask-2)"></path>
            <path d="M389.4253,240.7274 C389.3533,243.3104 387.6553,243.8414 385.5213,243.8204 C385.5213,243.8204 385.3973,243.6794 385.3973,243.6804 C386.2243,242.1644 387.4863,241.1024 388.9593,240.2614 L389.4253,240.7274 Z" id="Fill-76" fill="#23708D" mask="url(#mask-2)"></path>
            <path d="M402.5063,275.0135 C402.4683,275.2735 402.4683,275.5335 402.5073,275.7925 L401.6103,274.6035 C401.9563,274.6375 402.2543,274.7745 402.5063,275.0135" id="Fill-77" fill="#23708D" mask="url(#mask-2)"></path>
            <path d="M501.4146,114.5946 C486.4326,114.6876 471.4456,115.0046 456.4696,114.7446 C451.5006,114.6586 450.4836,116.2326 450.5306,120.9126 C450.7216,140.2226 450.4776,159.5366 450.3936,178.8476 C448.8016,177.1476 449.5066,175.0446 449.4856,173.1176 C449.3746,162.7956 450.0186,152.4126 449.1056,142.1666 C448.3346,133.4966 448.8266,124.8926 448.5786,116.2656 C448.5116,113.9306 449.4816,112.0786 452.4686,112.2996 C467.2596,113.3936 482.0746,112.5486 496.8786,112.7346 C498.5556,112.7546 501.3306,113.7956 501.7336,111.7566 C502.1636,109.5876 502.2256,106.6046 499.9306,104.9016 C498.1586,103.5876 497.1576,102.1196 497.3836,99.9036 L497.6016,99.6736 C502.4196,104.5816 508.3666,108.4476 511.5956,114.8236 C509.5896,114.7416 507.5826,114.6606 505.5746,114.5786 C504.1836,113.4126 502.7966,113.4166 501.4146,114.5946" id="Fill-78" fill="#23708D" mask="url(#mask-2)"></path>
            <path d="M481.5864,83.6883 C487.2734,88.6673 492.5604,94.0473 497.6014,99.6733 C497.6014,99.6733 497.3834,99.9033 497.3844,99.9013 C494.3374,100.1833 492.1634,99.1773 490.4144,96.4123 C489.0374,94.2333 487.0274,92.2093 484.8434,90.8483 C482.0384,89.1013 481.1064,86.9063 481.4214,83.8643 L481.5864,83.6883 Z" id="Fill-79" fill="#23708D" mask="url(#mask-2)"></path>
            <path d="M465.6099,67.662 C471.2399,72.702 476.6559,77.952 481.5869,83.688 C481.5869,83.688 481.4219,83.864 481.4229,83.864 C476.4139,82.789 473.0439,79.184 470.1609,75.51 C468.3769,73.235 464.6229,71.832 465.4149,67.872 L465.6099,67.662 Z" id="Fill-80" fill="#23708D" mask="url(#mask-2)"></path>
            <path d="M449.6929,51.6073 C454.9989,56.9593 460.3039,62.3113 465.6099,67.6633 C465.6099,67.6623 465.4149,67.8723 465.4159,67.8713 C460.4059,66.7973 457.0599,63.1633 454.1509,59.5163 C452.3529,57.2623 448.6279,55.8233 449.4189,51.8683 L449.6929,51.6073 Z" id="Fill-81" fill="#23708D" mask="url(#mask-2)"></path>
            <path d="M265.436,168.367 C265.365,168.891 265.293,169.416 265.222,169.939 C260.106,173.668 262.262,178.836 262.513,183.628 C262.278,184.036 262.33,185.342 261.81,184.702 C260.887,183.565 258.926,182.667 259.828,180.582 C260.663,179.592 260.496,178.394 260.496,177.243 C260.5,157.936 260.499,138.63 260.491,119.323 C260.491,118.175 260.676,116.971 259.803,115.997 C259.331,115.589 258.859,115.179 258.386,114.771 C237.429,114.791 216.471,114.81 195.514,114.831 C195.19,113.459 196.108,112.687 196.934,111.862 C222.446,86.375 247.957,60.886 273.47,35.394 C275.608,35.791 275.916,38.767 278.298,38.818 C279.017,39.542 279.738,40.265 280.458,40.988 C280.905,43.098 282.185,44.378 284.296,44.828 C293.687,54.595 303.108,64.333 312.443,74.153 C314.141,75.94 315.8,77.323 318.428,76.642 C317.763,79.436 313.49,83.359 320.641,83.703 C320.961,84.002 321.282,84.302 321.602,84.602 C321.508,86.034 322.191,86.735 323.612,86.743 C328.312,91.33 333.697,95.227 337.581,100.635 C337.511,102.044 338.195,102.738 339.591,102.757 C339.904,103.07 340.216,103.383 340.529,103.697 C341.652,107.289 343.956,109.691 347.613,110.731 C348.604,111.702 349.596,112.673 350.587,113.645 C349.371,119.357 344.217,121.946 340.813,125.915 C338.274,128.875 336.776,127.769 335.847,124.483 C335.168,122.086 334.401,119.758 334.42,117.196 C334.442,114.229 332.98,112.735 329.768,112.751 C312.138,112.833 294.507,112.815 276.877,112.77 C274.633,112.764 273.344,113.431 273.55,115.878 L273.564,115.831 C273.197,116.53 272.624,117.193 272.494,117.933 C270.469,129.393 268.146,140.818 266.68,152.351 C266.01,157.62 264.062,162.904 265.436,168.367" id="Fill-82" fill="#9C1D18" mask="url(#mask-2)"></path>
            <path d="M386.7739,314.0028 C386.7119,313.3958 386.9249,313.0158 387.5929,313.0118 C387.3199,313.3428 387.0459,313.6728 386.7739,314.0028" id="Fill-83" fill="#0E6F9F" mask="url(#mask-2)"></path>
            <path d="M449.4185,51.868 C448.6275,55.823 452.3535,57.263 454.1505,59.516 C457.0605,63.163 460.4055,66.798 465.4155,67.871 C464.6225,71.832 468.3765,73.235 470.1605,75.51 C473.0435,79.184 476.4135,82.789 481.4225,83.864 C481.1055,86.906 482.0385,89.101 484.8435,90.848 C487.0275,92.21 489.0375,94.233 490.4145,96.412 C492.1635,99.178 494.3375,100.183 497.3845,99.901 C497.1575,102.12 498.1585,103.588 499.9305,104.901 C502.2255,106.604 502.1635,109.588 501.7335,111.757 C501.3305,113.796 498.5555,112.755 496.8785,112.734 C482.0745,112.549 467.2595,113.393 452.4685,112.3 C449.4815,112.079 448.5115,113.931 448.5785,116.265 C448.8265,124.892 448.3345,133.497 449.1065,142.167 C450.0185,152.413 449.3745,162.796 449.4855,173.118 C449.5065,175.045 448.8015,177.147 450.3945,178.847 C450.5325,179.164 450.5445,179.483 450.4285,179.806 C449.4785,179.911 448.5285,180.016 447.5795,180.122 C446.5255,171.599 445.9215,162.988 444.2455,154.591 C443.2935,149.821 445.2245,144.848 443.0515,140.467 C440.7065,135.738 440.2495,130.732 439.1605,125.75 C438.4505,122.505 440.8145,117.698 435.7595,115.849 C435.4425,115.667 435.2915,115.392 435.3105,115.033 C434.8685,113.232 433.5255,112.802 431.8975,112.802 C413.6655,112.806 395.4345,112.796 377.2025,112.828 C374.2005,112.834 372.7515,114.457 372.4855,117.472 C372.2005,120.707 371.6175,123.916 371.1895,126.962 C369.5065,127.46 369.0095,126.276 368.3265,125.719 C366.3995,124.146 364.6315,122.379 362.8145,120.674 C360.5825,118.582 358.2425,116.439 360.0595,112.985 C362.1355,109.035 367.8075,106.163 371.1135,107.306 C372.8355,107.901 374.4465,107.331 374.9555,105.984 C375.8905,103.511 373.6025,103.971 372.2745,103.805 C370.7735,103.616 369.9135,102.713 369.2465,101.495 C369.2895,100.902 369.3335,100.31 369.3775,99.719 C369.3775,99.719 369.4135,99.681 369.4135,99.681 C369.8925,99.568 370.5245,99.613 370.8275,99.318 C376.7365,93.558 382.6065,87.758 388.4865,81.968 C389.8355,80.639 388.9645,79.193 388.7135,77.78 C391.2395,77.973 392.5445,76.117 394.0675,74.607 C406.8275,61.968 419.5935,49.335 432.3565,36.698 C435.6125,42.405 441.0735,46.183 445.1675,51.172 C445.8515,52.006 447.9655,51.666 449.4185,51.868" id="Fill-84" fill="#0E6F9F" mask="url(#mask-2)"></path>
            <path d="M388.7134,77.7801 C388.9644,79.1931 389.8354,80.6391 388.4864,81.9671 C382.6074,87.7581 376.7364,93.5581 370.8274,99.3181 C370.5254,99.6131 369.8924,99.5681 369.4134,99.6811 C368.9264,93.8701 375.2594,93.0401 377.2084,89.0071 C379.5424,84.1791 386.1354,83.2341 387.6014,77.6131 C387.9724,77.6691 388.3434,77.7241 388.7134,77.7801" id="Fill-85" fill="#1F4155" mask="url(#mask-2)"></path>
            <path d="M385.5562,75.744 C380.8792,75.397 374.0412,68.594 374.1212,64.364 C378.2292,67.861 382.5592,71.133 385.5562,75.744" id="Fill-86" fill="#1F4155" mask="url(#mask-2)"></path>
            <path d="M369.5308,59.7635 C364.4888,59.4555 361.8108,56.7925 361.5348,51.7375 C365.0428,53.5735 367.6618,56.2945 369.5308,59.7635" id="Fill-87" fill="#1F4155" mask="url(#mask-2)"></path>
            <path d="M372.9448,63.1551 C369.3058,64.5381 369.4718,62.0911 369.5258,59.7581 C371.0068,60.5471 372.2898,61.5351 372.9448,63.1551" id="Fill-88" fill="#1F4155" mask="url(#mask-2)"></path>
            <path d="M373.9214,64.1678 C373.1774,64.3798 372.9044,64.1118 373.1094,63.3618 C373.3814,63.6288 373.6504,63.8978 373.9214,64.1678" id="Fill-89" fill="#1F4155" mask="url(#mask-2)"></path>
            <path d="M386.4897,76.8172 C386.1707,76.4552 385.8507,76.0912 385.5317,75.7292 C385.8507,76.0912 386.1707,76.4552 386.4897,76.8172" id="Fill-90" fill="#1F4155" mask="url(#mask-2)"></path>
            <path d="M330.5005,324.7723 C333.8965,326.0563 336.2815,328.3313 337.4215,331.8283 C334.0375,330.5323 331.6505,328.2583 330.5005,324.7723" id="Fill-91" fill="#9C1D18" mask="url(#mask-2)"></path>
            <path d="M323.519,317.8065 C325.82,318.1455 327.127,319.4735 327.461,321.7685 C325.121,321.4695 323.809,320.1465 323.519,317.8065" id="Fill-92" fill="#9C1D18" mask="url(#mask-2)"></path>
            <path d="M341.4438,335.8573 C342.7888,335.8023 343.4958,336.4103 343.4588,337.7933 C342.1578,337.8033 341.4658,337.1783 341.4438,335.8573" id="Fill-93" fill="#9C1D18" mask="url(#mask-2)"></path>
            <path d="M339.4829,333.8534 C340.8789,333.7854 341.4779,334.4974 341.4289,335.8424 C340.1229,335.8224 339.4759,335.1584 339.4829,333.8534" id="Fill-94" fill="#9C1D18" mask="url(#mask-2)"></path>
            <path d="M337.4595,331.868 C338.7555,331.862 339.4965,332.423 339.4315,333.803 C338.1365,333.807 337.5005,333.14 337.4595,331.868" id="Fill-95" fill="#9C1D18" mask="url(#mask-2)"></path>
            <path d="M327.5239,321.828 C328.4029,321.8 329.0639,322.007 328.8969,323.104 C328.1729,322.963 327.6449,322.614 327.5239,321.828" id="Fill-96" fill="#9C1D18" mask="url(#mask-2)"></path>
            <path d="M330.4272,65.7508 C328.7712,70.3068 325.6092,73.5078 321.4062,75.7708 C321.0052,75.6898 320.6042,75.6098 320.2022,75.5308 C322.6002,71.2148 326.4672,68.4348 330.4272,65.7508" id="Fill-97" fill="#9C1D18" mask="url(#mask-2)"></path>
            <path d="M320.2026,75.5311 C320.6036,75.6101 321.0056,75.6901 321.4056,75.7701 C320.6736,78.3691 320.0426,80.9771 320.6396,83.7041 C313.4896,83.3591 317.7636,79.4361 318.4286,76.6421 C319.0196,76.2711 319.6106,75.9011 320.2026,75.5311" id="Fill-98" fill="#841912" mask="url(#mask-2)"></path>
            <path d="M284.2964,44.828 C282.1854,44.378 280.9044,43.099 280.4584,40.988 C282.9024,41.104 284.1824,42.384 284.2964,44.828" id="Fill-99" fill="#C72F2B" mask="url(#mask-2)"></path>
            <path d="M344.5483,50.8905 C344.4213,49.8745 342.0923,49.5005 343.3733,48.3375 C344.5873,47.2375 345.2353,48.5615 345.5063,49.7455 C345.1873,50.1275 344.8673,50.5095 344.5483,50.8905" id="Fill-100" fill="#C72F2B" mask="url(#mask-2)"></path>
            <path d="M337.5112,58.8612 C337.5072,60.2062 336.7122,60.7712 335.4892,60.9132 C335.5452,60.2872 335.6012,59.6622 335.6572,59.0372 L337.5112,58.8612 Z" id="Fill-101" fill="#9C1D18" mask="url(#mask-2)"></path>
            <path d="M335.6567,59.037 C335.6007,59.662 335.5457,60.287 335.4887,60.913 C334.9927,61.092 334.4957,61.268 334.0027,61.448 C333.4847,59.913 333.8507,58.982 335.6567,59.037" id="Fill-102" fill="#C72F2B" mask="url(#mask-2)"></path>
            <path d="M344.5483,50.8905 C344.8673,50.5095 345.1873,50.1275 345.5063,49.7455 L346.5753,49.8835 C346.3133,51.2275 345.9393,52.4545 344.1493,52.1935 C344.2813,51.7575 344.4143,51.3245 344.5483,50.8905" id="Fill-103" fill="#9C1D18" mask="url(#mask-2)"></path>
            <path d="M333.7241,61.9491 C333.5051,63.0911 332.7981,63.7691 331.7031,64.0781 C331.5051,62.5421 332.1871,61.8401 333.7241,61.9491" id="Fill-104" fill="#C72F2B" mask="url(#mask-2)"></path>
            <path d="M273.5503,115.8778 C273.3443,113.4318 274.6333,112.7648 276.8773,112.7708 C294.5073,112.8148 312.1383,112.8328 329.7683,112.7508 C332.9803,112.7348 334.4423,114.2298 334.4203,117.1958 C334.4013,119.7578 335.1683,122.0858 335.8473,124.4828 C336.7763,127.7698 338.2743,128.8748 340.8133,125.9148 C344.2173,121.9458 349.3703,119.3568 350.5873,113.6458 C351.4843,113.7748 352.3803,113.9058 353.2783,114.0348 C353.2513,114.6408 353.2243,115.2478 353.1963,115.8558 C347.5853,121.4568 341.9763,127.0588 336.3653,132.6598 C334.3803,128.0638 333.7003,123.1078 332.4983,118.2998 C331.9593,116.1438 331.3133,114.7598 328.6433,114.7738 C311.1763,114.8648 293.7083,114.8138 276.2403,114.8138 C275.2123,114.8138 274.2693,115.0748 273.5503,115.8778" id="Fill-105" fill="#841912" mask="url(#mask-2)"></path>
            <path d="M353.1958,115.8553 C353.2238,115.2483 353.2518,114.6403 353.2778,114.0353 C355.9918,109.3133 361.2118,106.8893 364.0898,102.3813 C365.4498,100.2523 367.1178,99.6183 369.3778,99.7183 C369.3338,100.3103 369.2898,100.9023 369.2488,101.4973 C363.4698,105.4723 358.8928,110.6763 354.4128,115.9813 C354.0078,115.9393 353.6008,115.8973 353.1958,115.8553" id="Fill-106" fill="#1F4155" mask="url(#mask-2)"></path>
            <path d="M347.6128,110.7313 C343.9558,109.6913 341.6518,107.2893 340.5288,103.6973 C343.9158,105.0083 346.2128,107.4183 347.6128,110.7313" id="Fill-107" fill="#841912" mask="url(#mask-2)"></path>
            <path d="M323.6118,86.743 C322.1908,86.735 321.5078,86.034 321.6018,84.602 C322.7868,84.833 323.5058,85.501 323.6118,86.743" id="Fill-108" fill="#841912" mask="url(#mask-2)"></path>
            <path d="M339.5913,102.7567 C338.1953,102.7377 337.5113,102.0437 337.5803,100.6347 C338.7813,100.8397 339.4903,101.5107 339.5913,102.7567" id="Fill-109" fill="#841912" mask="url(#mask-2)"></path>
            <path d="M353.1958,115.8553 C353.6008,115.8973 354.0078,115.9393 354.4138,115.9813 C359.3258,122.3513 364.6328,128.3183 371.4838,132.7093 C365.5498,156.1053 359.6158,179.5013 353.6818,202.8993 C353.3978,202.8543 353.1138,202.8093 352.8308,202.7653 C347.4658,180.5503 342.0938,158.3373 336.7558,136.1183 C336.4858,135.0003 336.4918,133.8163 336.3678,132.6623 C341.9758,127.0583 347.5858,121.4573 353.1958,115.8553" id="Fill-110" fill="#B1B2B2" mask="url(#mask-2)"></path>
            <path d="M388.9595,240.2616 C387.4855,241.1026 386.2245,242.1646 385.3965,243.6806 C384.5385,244.0526 383.6805,244.4256 382.8235,244.7966 C382.3355,238.3246 385.1885,232.5136 386.5775,226.4316 C389.6725,212.8876 393.1505,199.4316 397.5105,186.0006 C398.1965,200.5836 398.8825,215.1666 399.5675,229.7496 C395.4165,232.6326 392.0015,236.2576 388.9595,240.2616" id="Fill-111" fill="#B1B2B2" mask="url(#mask-2)"></path>
            <path d="M214.2495,168.577 C214.2495,182.172 214.2305,195.766 214.2705,209.361 C214.2765,211.331 213.7515,212.283 211.5395,212.551 C197.5155,214.246 196.8815,213.556 201.5065,200.616 C205.3495,189.86 209.2385,179.121 213.1065,168.375 C213.4875,168.442 213.8685,168.51 214.2495,168.577" id="Fill-112" fill="#C72F2B" mask="url(#mask-2)"></path>
            <path d="M371.4839,132.7088 C364.6319,128.3178 359.3259,122.3518 354.4139,115.9808 C358.8929,110.6768 363.4699,105.4728 369.2489,101.4968 C369.9139,102.7128 370.7739,103.6158 372.2749,103.8048 C373.6019,103.9708 375.8899,103.5108 374.9559,105.9838 C374.4469,107.3308 372.8359,107.9008 371.1139,107.3058 C367.8069,106.1628 362.1349,109.0348 360.0589,112.9848 C358.2429,116.4388 360.5829,118.5818 362.8139,120.6738 C364.6309,122.3788 366.3999,124.1458 368.3269,125.7188 C369.0089,126.2758 369.5059,127.4598 371.1899,126.9618 C371.6179,123.9158 372.2009,120.7068 372.4859,117.4718 C372.7519,114.4568 374.2009,112.8338 377.2029,112.8278 C395.4339,112.7958 413.6659,112.8068 431.8969,112.8018 C433.5259,112.8018 434.8689,113.2318 435.3099,115.0328 C416.9049,114.9998 398.5039,115.0708 380.1039,114.8568 C376.6529,114.8158 375.4829,116.2848 374.8289,119.2138 C373.8179,123.7348 372.6089,128.2128 371.4839,132.7088" id="Fill-113" fill="#23708D" mask="url(#mask-2)"></path>
            <path d="M435.7593,115.8495 C440.8153,117.6985 438.4503,122.5045 439.1603,125.7495 C440.2493,130.7325 440.7063,135.7385 443.0513,140.4665 C445.2243,144.8485 443.2933,149.8215 444.2453,154.5905 C445.9213,162.9885 446.5263,171.5995 447.5793,180.1195 C447.0103,180.6125 446.4423,181.1095 445.8733,181.6075 C442.5023,159.6875 439.1313,137.7685 435.7593,115.8495" id="Fill-114" fill="#23708D" mask="url(#mask-2)"></path>
            <path d="M259.8276,180.5819 C258.9266,182.6669 260.8876,183.5649 261.8096,184.7019 C262.3296,185.3419 262.2776,184.0359 262.5136,183.6299 C262.7506,183.6459 262.9806,183.6929 263.2056,183.7719 C263.1106,190.0889 261.2226,196.0629 259.1766,202.1109 C259.1766,187.7129 259.1736,173.3139 259.1776,158.9169 C259.1816,146.1429 259.2026,133.3689 259.1906,120.5949 C259.1886,118.6269 259.5256,116.5919 258.3876,114.7719 C258.8586,115.1799 259.3306,115.5889 259.8026,115.9959 C259.8106,137.5239 259.8186,159.0529 259.8276,180.5819" id="Fill-115" fill="#C72F2B" mask="url(#mask-2)"></path>
            <path d="M445.8735,181.6073 C446.4415,181.1093 447.0105,180.6123 447.5795,180.1193 C448.5285,180.0163 449.4775,179.9113 450.4285,179.8063 C451.7325,189.0043 450.7635,198.2043 450.9975,207.4023 C450.5865,207.4413 450.1755,207.4793 449.7655,207.5183 C448.4685,198.8803 447.1705,190.2443 445.8735,181.6073" id="Fill-116" fill="#229BD5" mask="url(#mask-2)"></path>
            <path d="M265.436,168.367 C264.062,162.904 266.01,157.62 266.68,152.351 C268.146,140.818 270.469,129.393 272.494,117.933 C272.624,117.193 273.197,116.53 273.564,115.831 C271.544,133.449 268.574,150.921 265.436,168.367" id="Fill-117" fill="#841912" mask="url(#mask-2)"></path>
            <path d="M263.2056,183.7723 C262.9806,183.6933 262.7506,183.6463 262.5136,183.6293 C262.2626,178.8353 260.1056,173.6683 265.2226,169.9393 C265.1506,174.6383 264.0686,179.1893 263.2056,183.7723" id="Fill-118" fill="#841912" mask="url(#mask-2)"></path>
            <path d="M400.1567,237.6229 C399.1657,235.3479 399.4117,233.0049 399.7787,230.6549 C400.7527,232.9319 400.6227,235.2689 400.1567,237.6229" id="Fill-119" fill="#B1B2B2" mask="url(#mask-2)"></path>
            <path d="M501.4146,114.5946 C502.7966,113.4166 504.1836,113.4126 505.5746,114.5786 C504.1886,114.5836 502.8026,114.5896 501.4146,114.5946" id="Fill-120" fill="#0E6F9F" mask="url(#mask-2)"></path>
            <path d="M259.8276,180.5819 C259.8186,159.0529 259.8106,137.5239 259.8026,115.9959 C260.6766,116.9719 260.4906,118.1749 260.4906,119.3229 C260.4996,138.6299 260.5006,157.9359 260.4956,177.2429 C260.4956,178.3939 260.6626,179.5919 259.8276,180.5819" id="Fill-121" fill="#841912" mask="url(#mask-2)"></path>
        </g>
    </g>
</svg>