<?xml version="1.0" encoding="UTF-8"?>
<svg width="127px" height="144px" viewBox="0 0 127 144" version="1.1" xmlns="http://www.w3.org/2000/svg" xmlns:xlink="http://www.w3.org/1999/xlink">
    <!-- Generator: Sketch 47.1 (45422) - http://www.bohemiancoding.com/sketch -->
    <title>Group 4</title>
    <desc>Created with Sketch.</desc>
    <defs></defs>
    <g id="Page-1" stroke="none" stroke-width="1" fill="none" fill-rule="evenodd">
        <g id="Group-4" fill-rule="nonzero">
            <path d="M126.770628,59.4575698 C126.770628,49.7006077 118.85576,41.734152 109.104436,41.734152 L81.7903832,41.734152 L81.7903832,21.9866837 C81.7903832,13.6309875 79.3590186,7.61073432 74.5480206,4.0816204 C66.94354,-1.5234429 56.4938455,1.66832926 56.0541306,1.82402546 C54.734986,2.23921533 53.8296907,3.45883558 53.8296907,4.86010141 L53.8296907,27.0468103 C53.8296907,44.5107343 33.6286724,50.4531394 32.7751082,50.7126331 C32.5164524,50.7904812 32.2836622,50.8683293 32.0767375,50.9980761 C30.5765339,47.9879495 27.4726642,45.9120001 23.9032141,45.9120001 L9.1081021,45.9120001 C4.09017949,45.9120001 0.00341777787,50.0120001 0.00341777787,55.0461774 L0.00341777787,108.994912 C0.00341777787,114.029089 4.09017949,118.129089 9.1081021,118.129089 L17.6696092,118.129089 C19.4284687,118.129089 20.8510756,116.701874 20.8510756,114.937317 C20.8510756,113.17276 19.4026031,111.771494 17.6696092,111.771494 L9.1081021,111.771494 C7.58203285,111.771494 6.34048499,110.525924 6.34048499,108.994912 L6.34048499,55.0461774 C6.34048499,53.5151647 7.58203285,52.2695951 9.1081021,52.2695951 L23.9290797,52.2695951 C25.4551489,52.2695951 26.6966968,53.5151647 26.6966968,55.0461774 L26.6966968,105.932886 C26.6966968,115.689848 34.6115644,123.656304 44.3628882,123.656304 L98.4736825,123.656304 C110.475312,123.656304 118.105658,117.350608 119.450668,106.451874 L126.744762,60.5214938 C126.770628,60.3657976 126.796493,60.184152 126.796493,60.0284558 L126.796493,59.4575698 L126.770628,59.4575698 L126.770628,59.4575698 Z M120.43356,59.7430128 L113.165332,105.543646 C112.208306,113.328456 107.26798,117.298709 98.4736825,117.298709 L96.4561673,117.298709 L44.3628882,117.298709 C38.1292834,117.298709 33.033764,112.212633 33.033764,105.932886 L33.033764,56.8626331 C33.4993445,56.9664305 33.9907905,56.9404812 34.4822365,56.8107343 C35.5427253,56.5252913 60.1667579,49.363266 60.1667579,27.0208609 L60.1667579,7.40313938 C62.8567783,6.98794951 67.4608516,6.75440521 70.7975115,9.19364571 C73.8755155,11.47719 75.4533159,15.7588356 75.4533159,21.9866837 L75.4533159,44.9259242 C75.4533159,46.6904812 76.8759229,48.1176963 78.6347823,48.1176963 L109.130302,48.1176963 C115.363907,48.1176963 120.459426,53.2037723 120.459426,59.4835191 L120.459426,59.7430128 L120.43356,59.7430128 L120.43356,59.7430128 Z" id="like" fill="#0099CD"></path>
            <path d="M126.770628,79.4575698 C126.770628,69.7006077 118.85576,61.734152 109.104436,61.734152 L81.7903832,61.734152 L81.7903832,41.9866837 C81.7903832,33.6309875 79.3590186,27.6107343 74.5480206,24.0816204 C66.94354,18.4765571 56.4938455,21.6683293 56.0541306,21.8240255 C54.734986,22.2392153 53.8296907,23.4588356 53.8296907,24.8601014 L53.8296907,47.0468103 C53.8296907,64.5107343 33.6286724,70.4531394 32.7751082,70.7126331 C32.5164524,70.7904812 32.2836622,70.8683293 32.0767375,70.9980761 C30.5765339,67.9879495 27.4726642,65.9120001 23.9032141,65.9120001 L9.1081021,65.9120001 C4.09017949,65.9120001 0.00341777787,70.0120001 0.00341777787,75.0461774 L0.00341777787,128.994912 C0.00341777787,134.029089 4.09017949,138.129089 9.1081021,138.129089 L17.6696092,138.129089 C19.4284687,138.129089 20.8510756,136.701874 20.8510756,134.937317 C20.8510756,133.17276 19.4026031,131.771494 17.6696092,131.771494 L9.1081021,131.771494 C7.58203285,131.771494 6.34048499,130.525924 6.34048499,128.994912 L6.34048499,75.0461774 C6.34048499,73.5151647 7.58203285,72.2695951 9.1081021,72.2695951 L23.9290797,72.2695951 C25.4551489,72.2695951 26.6966968,73.5151647 26.6966968,75.0461774 L26.6966968,125.932886 C26.6966968,135.689848 34.6115644,143.656304 44.3628882,143.656304 L98.4736825,143.656304 C110.475312,143.656304 118.105658,137.350608 119.450668,126.451874 L126.744762,80.5214938 C126.770628,80.3657976 126.796493,80.184152 126.796493,80.0284558 L126.796493,79.4575698 L126.770628,79.4575698 L126.770628,79.4575698 Z M120.43356,79.7430128 L113.165332,125.543646 C112.208306,133.328456 107.26798,137.298709 98.4736825,137.298709 L96.4561673,137.298709 L44.3628882,137.298709 C38.1292834,137.298709 33.033764,132.212633 33.033764,125.932886 L33.033764,76.8626331 C33.4993445,76.9664305 33.9907905,76.9404812 34.4822365,76.8107343 C35.5427253,76.5252913 60.1667579,69.363266 60.1667579,47.0208609 L60.1667579,27.4031394 C62.8567783,26.9879495 67.4608516,26.7544052 70.7975115,29.1936457 C73.8755155,31.47719 75.4533159,35.7588356 75.4533159,41.9866837 L75.4533159,64.9259242 C75.4533159,66.6904812 76.8759229,68.1176963 78.6347823,68.1176963 L109.130302,68.1176963 C115.363907,68.1176963 120.459426,73.2037723 120.459426,79.4835191 L120.459426,79.7430128 L120.43356,79.7430128 L120.43356,79.7430128 Z" id="like" fill="#D8232A"></path>
        </g>
    </g>
</svg>