<?xml version="1.0" encoding="UTF-8"?>
<svg width="29px" height="44px" viewBox="0 0 29 44" version="1.1" xmlns="http://www.w3.org/2000/svg" xmlns:xlink="http://www.w3.org/1999/xlink">
    <!-- Generator: Sketch 47.1 (45422) - http://www.bohemiancoding.com/sketch -->
    <title>Location</title>
    <desc>Created with Sketch.</desc>
    <defs></defs>
    <g id="Page-1" stroke="none" stroke-width="1" fill="none" fill-rule="evenodd">
        <g id="Location" fill-rule="nonzero" fill="#D8232A">
            <path d="M15.9053949,40.9997061 L14.2118757,43.5316281 L12.4940956,41.0161027 C12.3943965,40.870103 12.2116699,40.5989649 11.957726,40.2165094 C11.5368534,39.5826487 11.0684895,38.8652559 10.5644232,38.078102 C9.12437789,35.8293156 7.68423076,33.4683805 6.33774882,31.1039383 C5.52238915,29.6721546 4.76556882,28.2805009 4.07867995,26.941741 C1.4727693,21.8627697 0.0005,17.8504754 0.0005,15.007181 C0.0005,6.91103139 6.23134923,0.813476562 14.1942044,0.813476562 C22.0350157,0.813476562 28.3894061,7.16786698 28.3894061,15.007181 C28.3894061,17.7938809 26.8470511,21.8766336 24.1178866,27.1521112 C23.4837616,28.3778754 22.7933149,29.6495237 22.0551648,30.956949 C20.7099558,33.3396085 19.2710719,35.7292456 17.8323141,38.012722 C17.3287334,38.8119632 16.8608539,39.5412906 16.4404691,40.1863778 C16.1869527,40.5754027 16.0046566,40.8513034 15.9053949,40.9997061 Z M14.3487559,35.8178245 C15.7544939,33.5867545 17.1601059,31.2523739 18.4697597,28.9326904 C19.1842863,27.6671074 19.8510064,26.4391582 20.4608968,25.2602395 C22.8861964,20.572133 24.272034,16.903696 24.272034,15.007181 C24.272034,9.44182878 19.7610539,4.93084863 14.1942044,4.93084863 C8.48562101,4.93084863 4.11787207,9.20515983 4.11787207,15.007181 C4.11787207,16.9820861 5.42750931,20.5511682 7.74200578,25.0621675 C8.40004141,26.3446919 9.12856201,27.6843075 9.91564165,29.066431 C11.223695,31.3633921 12.6276928,33.665065 14.0317924,35.8577183 C14.0811745,35.9348338 14.1301991,36.0112533 14.1788541,36.0869624 C14.2349983,35.9981967 14.2916385,35.9084765 14.3487559,35.8178245 Z" id="Stroke-1"></path>
            <path d="M14.1970492,18.7945644 C16.3383962,18.7945644 18.074865,17.0577931 18.074865,14.9137541 C18.074865,12.7724151 16.3366048,11.0329438 14.1970492,11.0329438 C12.0543561,11.0329438 10.3147416,12.7725582 10.3147416,14.9137541 C10.3147416,17.0576497 12.0525638,18.7945644 14.1970492,18.7945644 Z M14.1970492,22.9119365 C9.77908331,22.9119365 6.19736954,19.332093 6.19736954,14.9137541 C6.19736954,10.4985964 9.78039426,6.91557169 14.1970492,6.91557169 C18.6112088,6.91557169 22.1922371,10.499095 22.1922371,14.9137541 C22.1922371,19.3315944 18.6125185,22.9119365 14.1970492,22.9119365 Z" id="Stroke-3"></path>
        </g>
    </g>
</svg>