<?xml version="1.0" encoding="UTF-8"?>
<svg width="311px" height="256px" viewBox="0 0 311 256" version="1.1" xmlns="http://www.w3.org/2000/svg" xmlns:xlink="http://www.w3.org/1999/xlink">
    <!-- Generator: Sketch 47.1 (45422) - http://www.bohemiancoding.com/sketch -->
    <title>Group</title>
    <desc>Created with Sketch.</desc>
    <defs></defs>
    <g id="Page-1" stroke="none" stroke-width="1" fill="none" fill-rule="evenodd">
        <g id="Group" transform="translate(6.000000, 6.000000)" stroke-width="12" fill-rule="nonzero">
            <g id="quote" stroke="#0099CD">
                <polygon id="Shape" points="0 128.667 64 128.667 21.333 214 85.333 214 128 128.667 128 0.667 0 0.667"></polygon>
                <polygon id="Shape" points="170.667 0.667 170.667 128.667 234.667 128.667 192 214 256 214 298.667 128.667 298.667 0.667"></polygon>
            </g>
            <g id="quote" transform="translate(0.000000, 30.000000)" stroke="#D8232A">
                <polygon id="Shape" points="0 128.667 64 128.667 21.333 214 85.333 214 128 128.667 128 0.667 0 0.667"></polygon>
                <polygon id="Shape" points="170.667 0.667 170.667 128.667 234.667 128.667 192 214 256 214 298.667 128.667 298.667 0.667"></polygon>
            </g>
        </g>
    </g>
</svg>