<?xml version="1.0" encoding="UTF-8"?>
<svg width="127px" height="133px" viewBox="0 0 127 133" version="1.1" xmlns="http://www.w3.org/2000/svg" xmlns:xlink="http://www.w3.org/1999/xlink">
    <!-- Generator: Sketch 47.1 (45422) - http://www.bohemiancoding.com/sketch -->
    <title>Group 2</title>
    <desc>Created with Sketch.</desc>
    <defs></defs>
    <g id="Page-1" stroke="none" stroke-width="1" fill="none" fill-rule="evenodd">
        <g id="Group-2" fill-rule="nonzero">
            <path d="M0,76.4739631 C0,45.4380184 28.4583673,20.1822581 63.4740816,20.1822581 C98.4897959,20.1822581 126.948163,45.4380184 126.948163,76.4739631 C126.948163,107.509908 98.4897959,132.765668 63.4740816,132.765668 C57.6942857,132.765668 51.9663265,132.062673 46.4457143,130.708756 C44.735102,130.292166 43.6983673,128.573733 44.1130612,126.8553 C44.5277551,125.136866 46.2383673,124.095392 47.9489796,124.511982 C52.9771429,125.761751 58.2126531,126.386636 63.4740816,126.386636 C94.964898,126.386636 120.598163,103.994931 120.598163,76.4739631 C120.598163,48.9529954 94.964898,26.5612903 63.4740816,26.5612903 C31.9832653,26.5612903 6.35,48.9529954 6.35,76.4739631 C6.35,87.9562212 10.6783673,98.7354839 18.8944898,107.692166 C19.6979592,108.577419 19.9571429,109.853226 19.542449,110.972811 C17.8318367,115.581336 15.2918367,119.408756 11.9483673,122.429032 C16.6395918,122.585253 23.0932653,121.908295 29.0544898,118.315207 C30.5577551,117.403917 32.5016327,117.898618 33.4087755,119.408756 C34.3159184,120.918894 33.8234694,122.871659 32.3202041,123.782949 C22.7822449,129.51106 12.4926531,129.120507 7.20530612,128.391475 C5.20959184,128.131106 3.62857143,126.673041 3.18795918,124.69424 C2.74734694,122.689401 3.57673469,120.658525 5.28734694,119.53894 C8.60489796,117.37788 11.144898,114.331567 12.8814286,110.478111 C4.56163265,100.740323 0,88.7373272 0,76.4739631 Z M63.4740816,46.2191244 C65.2365306,46.2191244 66.6620408,47.6511521 66.6361224,49.4476959 L66.6361224,54.9935484 L73.2453061,54.9935484 C75.0077551,54.9935484 76.4332653,56.425576 76.4332653,58.1960829 C76.4332653,59.9665899 75.0077551,61.3986175 73.2453061,61.3986175 L59.6122449,61.3986175 C56.7093878,61.3986175 54.324898,64.0804147 54.324898,67.3610599 C54.324898,70.6417051 56.6834694,73.3235023 59.6122449,73.3235023 L67.3359184,73.3235023 C73.7377551,73.3235023 78.9732653,78.8693548 78.9732653,85.664977 C78.9732653,92.3824885 73.8414286,97.8762673 67.4914286,97.9804147 L67.4136735,97.9804147 L66.6361224,97.9804147 L66.6361224,103.604378 C66.6361224,105.374885 65.2106122,106.806912 63.4481633,106.806912 C61.6857143,106.806912 60.2602041,105.374885 60.2602041,103.604378 L60.2602041,97.9804147 L53.4177551,97.9804147 C51.6553061,97.9804147 50.2297959,96.5483871 50.2297959,94.7778802 C50.2297959,93.0073733 51.6553061,91.5753456 53.4177551,91.5753456 L67.31,91.5753456 C70.2128571,91.5753456 72.5973469,88.8935484 72.5973469,85.6129032 C72.5973469,82.3322581 70.2387755,79.6504608 67.31,79.6504608 L59.5863265,79.6504608 C53.1844898,79.6504608 47.9489796,74.1306452 47.9489796,67.3089862 C47.9489796,60.4873272 53.1585714,54.9675115 59.5863265,54.9675115 L60.2861224,54.9675115 L60.2861224,49.421659 C60.2861224,47.6511521 61.7116327,46.2191244 63.4740816,46.2191244 Z" id="speech-bubble-23" fill="#0099CD"></path>
            <path d="M0,56.4739631 C0,25.4380184 28.4583673,0.182258065 63.4740816,0.182258065 C98.4897959,0.182258065 126.948163,25.4380184 126.948163,56.4739631 C126.948163,87.5099078 98.4897959,112.765668 63.4740816,112.765668 C57.6942857,112.765668 51.9663265,112.062673 46.4457143,110.708756 C44.735102,110.292166 43.6983673,108.573733 44.1130612,106.8553 C44.5277551,105.136866 46.2383673,104.095392 47.9489796,104.511982 C52.9771429,105.761751 58.2126531,106.386636 63.4740816,106.386636 C94.964898,106.386636 120.598163,83.9949309 120.598163,56.4739631 C120.598163,28.9529954 94.964898,6.56129032 63.4740816,6.56129032 C31.9832653,6.56129032 6.35,28.9529954 6.35,56.4739631 C6.35,67.9562212 10.6783673,78.7354839 18.8944898,87.6921659 C19.6979592,88.5774194 19.9571429,89.8532258 19.542449,90.9728111 C17.8318367,95.5813364 15.2918367,99.4087558 11.9483673,102.429032 C16.6395918,102.585253 23.0932653,101.908295 29.0544898,98.3152074 C30.5577551,97.4039171 32.5016327,97.8986175 33.4087755,99.4087558 C34.3159184,100.918894 33.8234694,102.871659 32.3202041,103.782949 C22.7822449,109.51106 12.4926531,109.120507 7.20530612,108.391475 C5.20959184,108.131106 3.62857143,106.673041 3.18795918,104.69424 C2.74734694,102.689401 3.57673469,100.658525 5.28734694,99.5389401 C8.60489796,97.3778802 11.144898,94.3315668 12.8814286,90.4781106 C4.56163265,80.7403226 0,68.7373272 0,56.4739631 Z M63.4740816,26.2191244 C65.2365306,26.2191244 66.6620408,27.6511521 66.6361224,29.4476959 L66.6361224,34.9935484 L73.2453061,34.9935484 C75.0077551,34.9935484 76.4332653,36.425576 76.4332653,38.1960829 C76.4332653,39.9665899 75.0077551,41.3986175 73.2453061,41.3986175 L59.6122449,41.3986175 C56.7093878,41.3986175 54.324898,44.0804147 54.324898,47.3610599 C54.324898,50.6417051 56.6834694,53.3235023 59.6122449,53.3235023 L67.3359184,53.3235023 C73.7377551,53.3235023 78.9732653,58.8693548 78.9732653,65.664977 C78.9732653,72.3824885 73.8414286,77.8762673 67.4914286,77.9804147 L67.4136735,77.9804147 L66.6361224,77.9804147 L66.6361224,83.6043779 C66.6361224,85.3748848 65.2106122,86.8069124 63.4481633,86.8069124 C61.6857143,86.8069124 60.2602041,85.3748848 60.2602041,83.6043779 L60.2602041,77.9804147 L53.4177551,77.9804147 C51.6553061,77.9804147 50.2297959,76.5483871 50.2297959,74.7778802 C50.2297959,73.0073733 51.6553061,71.5753456 53.4177551,71.5753456 L67.31,71.5753456 C70.2128571,71.5753456 72.5973469,68.8935484 72.5973469,65.6129032 C72.5973469,62.3322581 70.2387755,59.6504608 67.31,59.6504608 L59.5863265,59.6504608 C53.1844898,59.6504608 47.9489796,54.1306452 47.9489796,47.3089862 C47.9489796,40.4873272 53.1585714,34.9675115 59.5863265,34.9675115 L60.2861224,34.9675115 L60.2861224,29.421659 C60.2861224,27.6511521 61.7116327,26.2191244 63.4740816,26.2191244 Z" id="speech-bubble-23" fill="#D8232A"></path>
        </g>
    </g>
</svg>