<?xml version="1.0" encoding="UTF-8"?>
<svg width="128px" height="122px" viewBox="0 0 128 122" version="1.1" xmlns="http://www.w3.org/2000/svg" xmlns:xlink="http://www.w3.org/1999/xlink">
    <!-- Generator: Sketch 47.1 (45422) - http://www.bohemiancoding.com/sketch -->
    <title>star</title>
    <desc>Created with Sketch.</desc>
    <defs></defs>
    <g id="Page-1" stroke="none" stroke-width="1" fill="none" fill-rule="evenodd">
        <path d="M117.82085,39.0712154 L86.8597506,36.8341151 C86.2131111,36.7820896 85.6440683,36.3918977 85.4112781,35.7675906 L73.6165734,6.89339019 C71.9870418,2.91343284 68.3141294,0.442217484 64.020443,0.442217484 C59.7267567,0.442217484 56.0797098,2.91343284 54.4243127,6.91940299 L42.6037424,35.8196162 C42.3450866,36.4179104 41.8019094,36.8341151 41.1552699,36.8861407 L10.2459013,39.1232409 C6.05567725,39.3573561 2.48622715,42.1147122 1.11535138,46.1727079 C-0.281389961,50.2827292 0.882561159,54.6008529 4.19335546,57.4362473 L28.1190174,77.3100213 C28.6104634,77.726226 28.8432536,78.4025586 28.6880601,79.0268657 L21.3939665,109.045629 C20.5404023,112.167164 21.1353106,115.392751 23.023498,117.915991 C24.9634166,120.465245 27.9896895,122 31.1711559,122 C33.13694,122 35.0509929,121.401706 36.6287933,120.335181 L62.7788952,103.973134 C63.3220724,103.634968 64.020443,103.634968 64.5636202,103.973134 L90.9723779,120.283156 C92.627775,121.401706 94.541828,122 96.4817465,122 C99.4562882,122 102.404964,120.569296 104.319017,118.150107 C106.310667,115.652878 107.034903,112.401279 106.310667,109.14968 L98.9907078,79.0528785 C98.8355143,78.4025586 99.0683045,77.726226 99.5597506,77.3100213 L123.847531,57.3842217 C127.106594,54.5748401 128.270545,50.2567164 126.899669,46.1466951 C125.554659,42.0886994 121.959343,39.3053305 117.82085,39.0712154 Z M119.8125,52.4678038 L95.5764512,72.3675906 C93.1968178,74.3185501 92.1104634,77.5441365 92.8605652,80.5616205 L100.180524,110.606397 C100.568508,112.375267 99.8701375,113.597868 99.4045571,114.170149 C98.6803208,115.080597 97.5939665,115.652878 96.5076121,115.652878 C95.835107,115.652878 95.1626019,115.444776 94.4383656,114.950533 L67.9261457,98.5624733 C66.6587322,97.7820896 65.2102597,97.3658849 63.7100561,97.3658849 C62.2098524,97.3658849 60.7355143,97.7820896 59.4681009,98.5884861 L33.2145367,115.002559 C31.533274,116.121109 29.2829685,115.626866 28.0931518,114.066098 C27.6017058,113.415778 27.0843942,112.297228 27.5499746,110.658422 L34.8699339,80.5356077 C35.5941701,77.5441365 34.5336813,74.3445629 32.1799135,72.3936034 L8.30598275,52.5458422 C6.41779537,50.9070362 6.93510698,48.8 7.14203163,48.2017058 C7.34895627,47.6034115 8.20252043,45.6004264 10.6856161,45.4703625 L41.6467159,43.2332623 C44.6988544,42.9991471 47.3371436,41.1002132 48.5010948,38.238806 L60.321665,9.33859275 C61.2786915,6.99744136 63.4255347,6.81535181 64.0463086,6.81535181 C64.6670825,6.81535181 66.8139257,6.99744136 67.7709522,9.33859275 L79.5915225,38.238806 C80.7554736,41.1002132 83.3937628,42.9991471 86.4459013,43.2332623 L117.458732,45.4963753 C119.890097,45.6264392 120.743661,47.6294243 120.950586,48.2277186 C121.105779,48.7739872 121.623091,50.8810235 119.8125,52.4678038 Z" id="star" fill="#0099CD" fill-rule="nonzero"></path>
    </g>
</svg>