<?xml version="1.0" encoding="UTF-8"?>
<svg width="128px" height="128px" viewBox="0 0 128 128" version="1.1" xmlns="http://www.w3.org/2000/svg" xmlns:xlink="http://www.w3.org/1999/xlink">
    <!-- Generator: Sketch 47.1 (45422) - http://www.bohemiancoding.com/sketch -->
    <title>user-1</title>
    <desc>Created with Sketch.</desc>
    <defs></defs>
    <g id="Page-1" stroke="none" stroke-width="1" fill="none" fill-rule="evenodd">
        <path d="M0.763186537,63.9871208 C0.763186537,98.9641699 29.2340882,127.435072 64.2111374,127.435072 C99.1881865,127.435072 127.659088,98.9641699 127.659088,63.9871208 C127.659088,29.0100716 99.1881865,0.539169935 64.2111374,0.539169935 C29.2340882,0.539169935 0.763186537,29.0100716 0.763186537,63.9871208 Z M27.2822439,107.448186 C36.6510964,101.124211 44.6926947,97.0643749 47.0609324,95.8932683 C48.4922849,95.1906044 49.4031456,93.7592519 49.4031456,92.1457273 L49.4031456,84.1822027 C49.4031456,83.6096617 49.246998,83.0631453 48.9607275,82.5686781 C47.3472029,79.8360962 46.2281456,76.5569978 45.6556046,72.8354814 C45.4734324,71.5863011 44.5365472,70.5713421 43.3654406,70.259047 C43.0531456,69.8686781 42.1683095,68.5153994 41.0492521,64.5856863 C40.164416,61.4627355 40.164416,59.9272847 40.2424898,59.3026945 C41.2053997,59.3026945 42.1422849,58.8602765 42.7408505,58.0795388 C43.4174898,57.2207273 43.5996619,56.0756453 43.2353177,55.0606863 C41.9861374,51.5213421 41.8299898,47.903924 42.7928997,44.2084322 C43.6256865,40.669088 45.5254816,37.3379404 48.4662603,34.319088 C50.0537603,32.6274896 51.8754816,31.1180634 53.8273259,29.8949076 C53.8533505,29.8688831 53.9053997,29.8428585 53.9314242,29.8168339 C55.5709734,28.6717519 57.2625718,27.8129404 58.9541701,27.2403994 L58.9801947,27.2403994 C60.4115472,26.7459322 61.8949488,26.4856863 63.4824488,26.4076126 C67.7504816,26.0432683 71.5760964,26.824006 74.9332685,28.8278994 C78.6287603,30.8578175 80.1121619,33.5123257 80.1121619,33.5123257 C80.6326538,34.5012601 81.6215882,35.1518749 82.714621,35.2299486 C82.7406456,35.2299486 84.1459734,35.4901945 85.4211783,37.1557683 C86.9306046,39.1596617 89.064621,44.3645798 86.4621619,56.9344568 C86.1758915,58.3658093 86.8785554,59.7971617 88.1537603,60.4217519 C88.2578587,60.9162191 88.3879816,62.4256453 87.3990472,65.938965 C86.5142111,69.0619158 85.7855226,70.5453175 85.3431046,71.2219568 C84.7965882,71.1438831 84.1980226,71.2219568 83.6775308,71.4301535 C82.6885964,71.846547 81.9599078,72.7574076 81.7777357,73.7983912 C81.2572439,76.7391699 80.4504816,79.3676535 79.3574488,81.6057683 C79.1492521,82.0481863 79.0451538,82.516629 79.0451538,82.9850716 L79.0451538,92.1977765 C79.0451538,93.8113011 79.9299898,95.2426535 81.3873669,95.9453175 C83.7816292,97.116424 91.8232275,101.202285 101.166055,107.500236 C91.1986374,115.984252 78.3164652,121.111096 64.2371619,121.111096 C50.1318341,121.059047 37.2496619,115.932203 27.2822439,107.448186 Z M64.2111374,6.91519453 C95.6748669,6.91519453 121.283064,32.5233912 121.283064,63.9871208 C121.283064,79.0293339 115.427531,92.7442929 105.876506,102.945932 C96.9500718,96.8301535 89.0125718,92.5881453 85.4211783,90.7924486 L85.4211783,83.6617109 C86.2799898,81.7879404 86.9826538,79.7059732 87.5031456,77.4938831 C90.0535554,76.5309732 91.8492521,73.5641699 93.5408505,67.6045388 C95.0763013,62.1653994 94.9461783,58.3397847 93.124457,56.1537191 C95.0242521,45.7178585 94.1654406,38.0145798 90.5480226,33.2520798 C88.6742521,30.7537191 86.4881865,29.6606863 84.9787603,29.1922437 C83.9117521,27.6828175 81.7517111,25.236506 78.1603177,23.2586371 C73.7101128,20.6301535 68.6092931,19.5371208 63.1181046,20.0055634 C61.0361374,20.1096617 58.9801947,20.5000306 56.9763013,21.1766699 L56.9502767,21.1766699 C54.7121619,21.9313831 52.5260964,23.0504404 50.4181046,24.5078175 C48.0238423,26.0432683 45.8117521,27.8649896 43.911957,29.8688831 C40.164416,33.6944978 37.7181046,38.0145798 36.6510964,42.6209322 C35.6621619,46.4205224 35.5580636,50.2201126 36.3648259,53.9676535 C36.0265062,54.2278994 35.6881865,54.5141699 35.401916,54.8785142 C33.5281456,57.1426535 33.371998,60.7600716 34.9334734,66.3033093 C35.974457,69.9727765 37.3277357,73.7463421 39.6699488,75.4899896 C40.3726128,79.0033093 41.4916701,82.2043339 43.027121,85.0149896 L43.027121,90.7924486 C39.4617521,92.5881453 31.4982275,96.8301535 22.5717931,102.945932 C13.0207685,92.7442929 7.13921113,79.0293339 7.13921113,63.9871208 C7.13921113,32.5233912 32.7474078,6.91519453 64.2111374,6.91519453 Z" id="user-1" fill="#0099CD" fill-rule="nonzero"></path>
    </g>
</svg>