<?xml version="1.0" encoding="UTF-8"?>
<svg width="128px" height="134px" viewBox="0 0 128 134" version="1.1" xmlns="http://www.w3.org/2000/svg" xmlns:xlink="http://www.w3.org/1999/xlink">
    <!-- Generator: Sketch 47.1 (45422) - http://www.bohemiancoding.com/sketch -->
    <title>heart</title>
    <desc>Created with Sketch.</desc>
    <defs></defs>
    <g id="Page-1" stroke="none" stroke-width="1" fill="none" fill-rule="evenodd">
        <g id="heart" fill-rule="nonzero">
            <path d="M57.779609,111.016413 C59.3574094,112.593759 61.478387,113.472935 63.7028269,113.472935 C65.9014013,113.472935 68.07411,112.567901 69.6260449,111.016413 L116.106493,64.5493654 C123.167796,57.4900976 127.047633,48.1035988 127.073499,38.1482212 C127.073499,28.1669855 123.193662,18.7804866 116.132359,11.7212189 C109.071055,4.66195117 99.7077149,0.783232635 89.7236009,0.783232635 C79.9205459,0.783232635 70.6865337,4.53266055 63.6769614,11.3592052 C56.6415235,4.50680243 47.3816457,0.731516388 37.5527251,0.731516388 C27.5944766,0.731516388 18.2311365,4.61023492 11.1698331,11.6436445 C4.1085296,18.7029123 0.228692528,28.0894111 0.228692528,38.0706468 C0.228692528,48.0260244 4.13439518,57.4125233 11.1956986,64.471791 L57.779609,111.016413 Z M15.6704441,16.142958 C21.5160652,10.2990221 29.301605,7.06675666 37.5785907,7.06675666 C45.8555764,7.06675666 53.6669817,10.2990221 59.5384685,16.1688162 L61.4525214,18.0823173 C62.0474298,18.6770541 62.8492628,19.0132098 63.7028269,19.0132098 L63.7028269,19.0132098 C64.5305255,19.0132098 65.3582241,18.6770541 65.9531324,18.0823173 L67.8154542,16.2205324 C73.686941,10.3507384 81.4724807,7.11847291 89.775332,7.11847291 C98.0523178,7.11847291 105.837857,10.3507384 111.683479,16.1946743 C117.554965,22.0644683 120.762297,29.8477635 120.762297,38.1223631 C120.762297,46.3969626 117.5291,54.1802578 111.657613,60.0500519 L65.1512995,106.542958 C64.4011976,107.292844 63.0303219,107.292844 62.2543544,106.542958 L15.6963096,59.9983356 C9.82482287,54.1285416 6.59162532,46.3452464 6.59162532,38.0706468 C6.59162532,29.7960473 9.82482287,22.0127521 15.6704441,16.142958 Z" id="heart-2-copy" fill="#009EE6"></path>
            <path d="M57.779609,131.016413 C59.3574094,132.593759 61.478387,133.472935 63.7028269,133.472935 C65.9014013,133.472935 68.07411,132.567901 69.6260449,131.016413 L116.106493,84.5493654 C123.167796,77.4900976 127.047633,68.1035988 127.073499,58.1482212 C127.073499,48.1669855 123.193662,38.7804866 116.132359,31.7212189 C109.071055,24.6619512 99.7077149,20.7832326 89.7236009,20.7832326 C79.9205459,20.7832326 70.6865337,24.5326606 63.6769614,31.3592052 C56.6415235,24.5068024 47.3816457,20.7315164 37.5527251,20.7315164 C27.5944766,20.7315164 18.2311365,24.6102349 11.1698331,31.6436445 C4.1085296,38.7029123 0.228692528,48.0894111 0.228692528,58.0706468 C0.228692528,68.0260244 4.13439518,77.4125233 11.1956986,84.471791 L57.779609,131.016413 Z M15.6704441,36.142958 C21.5160652,30.2990221 29.301605,27.0667567 37.5785907,27.0667567 C45.8555764,27.0667567 53.6669817,30.2990221 59.5384685,36.1688162 L61.4525214,38.0823173 C62.0474298,38.6770541 62.8492628,39.0132098 63.7028269,39.0132098 L63.7028269,39.0132098 C64.5305255,39.0132098 65.3582241,38.6770541 65.9531324,38.0823173 L67.8154542,36.2205324 C73.686941,30.3507384 81.4724807,27.1184729 89.775332,27.1184729 C98.0523178,27.1184729 105.837857,30.3507384 111.683479,36.1946743 C117.554965,42.0644683 120.762297,49.8477635 120.762297,58.1223631 C120.762297,66.3969626 117.5291,74.1802578 111.657613,80.0500519 L65.1512995,126.542958 C64.4011976,127.292844 63.0303219,127.292844 62.2543544,126.542958 L15.6963096,79.9983356 C9.82482287,74.1285416 6.59162532,66.3452464 6.59162532,58.0706468 C6.59162532,49.7960473 9.82482287,42.0127521 15.6704441,36.142958 Z" id="heart-2" fill="#D8232A"></path>
        </g>
    </g>
</svg>