<?xml version="1.0" encoding="UTF-8"?>
<svg width="64px" height="56px" viewBox="0 0 64 56" version="1.1" xmlns="http://www.w3.org/2000/svg" xmlns:xlink="http://www.w3.org/1999/xlink">
    <!-- Generator: Sketch 47.1 (45422) - http://www.bohemiancoding.com/sketch -->
    <title>56</title>
    <desc>Created with Sketch.</desc>
    <defs></defs>
    <g id="Page-1" stroke="none" stroke-width="1" fill="none" fill-rule="evenodd">
        <g id="Useful-Outline-Icons" transform="translate(-941.000000, -938.000000)" fill="#FFFFFF">
            <path d="M941.001,940 C941.001,941.105 941.896,942 943.001,942 L949.167,942 L953.001,986.173 L953.001,986.18 C953.001,990.508 956.645,994 960.997,994 C964.715,994 967.845,991.445 968.737,988 L977.264,988 C978.156,991.445 981.281,994 985,994 C989.411,994 993,990.411 993,986 C993,981.589 989.411,978 985,978 C981.281,978 978.156,980.556 977.264,984 L968.737,984 C967.845,980.556 964.72,978 961.001,978 C959.304,978 957.733,978.535 956.437,979.439 L955.877,972.989 C955.918,972.991 955.957,973 955.999,973 C956.032,973 956.065,972.999 956.098,972.998 L997.098,970.998 C997.953,970.957 998.688,970.373 998.923,969.55 L1004.923,948.55 C1005.096,947.947 1004.975,947.297 1004.597,946.796 C1004.219,946.295 1003.628,946 1003,946 L953.53,946 L952.993,939.827 C952.903,938.793 952.038,938 951.001,938 L943.001,938 C941.896,938 941.001,938.896 941.001,940 L941.001,940 Z M985,982 C987.206,982 989,983.794 989,986 C989,988.206 987.206,990 985,990 C982.794,990 981,988.206 981,986 C981,983.794 982.794,982 985,982 L985,982 Z M961.001,982 C963.207,982 965.001,983.794 965.001,986 C965.001,988.206 963.207,990 961.001,990 C958.794,990 957.001,988.206 957.001,986 C957.001,983.794 958.794,982 961.001,982 L961.001,982 Z M1000.349,950 L995.471,967.073 L955.903,969.002 C955.776,969.008 955.654,969.03 955.535,969.058 L953.878,950 L1000.349,950 L1000.349,950 Z" id="56"></path>
        </g>
    </g>
</svg>