<?xml version="1.0" encoding="UTF-8"?>
<svg width="39px" height="37px" viewBox="0 0 39 37" version="1.1" xmlns="http://www.w3.org/2000/svg" xmlns:xlink="http://www.w3.org/1999/xlink">
    <!-- Generator: Sketch 47.1 (45422) - http://www.bohemiancoding.com/sketch -->
    <title>Group</title>
    <desc>Created with Sketch.</desc>
    <defs></defs>
    <g id="Page-1" stroke="none" stroke-width="1" fill="none" fill-rule="evenodd">
        <g id="FREE100icons" transform="translate(-1166.000000, -158.000000)" fill="#FFFFFF">
            <g id="A" transform="translate(16.000000, 154.000000)">
                <g id="9A" transform="translate(1150.000000, 4.000000)">
                    <g id="Group">
                        <path d="M13.93,14.722 C13.93,13.895 13.26,13.227 12.43,13.227 L5.78,13.248 C7.7,7.318 13.31,3.191 19.58,3.171 C19.59,3.171 19.61,3.171 19.63,3.171 C26.63,3.171 32.65,8.154 33.94,15.036 C34.07,15.757 34.7,16.261 35.41,16.261 C35.5,16.261 35.6,16.252 35.69,16.235 C36.5,16.082 37.04,15.299 36.89,14.484 C35.33,6.182 28.08,0.171 19.63,0.171 C19.61,0.171 19.59,0.171 19.57,0.171 C12.63,0.193 6.35,4.399 3.58,10.629 L3.56,5.005 C3.56,4.179 2.88,3.51 2.06,3.51 C2.06,3.51 2.06,3.51 2.05,3.51 C1.23,3.513 0.56,4.187 0.56,5.015 L0.59,14.765 C0.59,15.163 0.75,15.544 1.03,15.824 C1.31,16.104 1.69,16.26 2.09,16.26 L12.44,16.227 C13.27,16.224 13.94,15.55 13.93,14.722" id="Fill-96"></path>
                        <path d="M38.63,21.466 C38.62,20.64 37.95,19.971 37.13,19.971 L37.12,19.971 L26.78,20.004 C25.95,20.007 25.28,20.681 25.28,21.509 C25.29,22.336 25.96,23.004 26.78,23.004 C26.79,23.004 26.79,23.004 26.79,23.004 L33.54,22.983 C31.7,29.062 26.08,33.275 19.67,33.296 C19.66,33.296 19.65,33.296 19.63,33.296 C13.33,33.296 6.95,28.339 5.68,22.454 C5.5,21.643 4.7,21.131 3.9,21.303 C3.09,21.478 2.57,22.276 2.75,23.085 C4.32,30.379 11.89,36.296 19.63,36.296 C19.65,36.296 19.67,36.296 19.68,36.296 C26.66,36.273 32.86,32.141 35.64,25.951 L35.66,31.226 C35.66,32.052 36.33,32.721 37.16,32.721 C37.99,32.718 38.66,32.044 38.66,31.216 L38.63,21.466" id="Fill-97"></path>
                    </g>
                </g>
            </g>
        </g>
    </g>
</svg>