<?xml version="1.0" encoding="UTF-8"?>
<svg width="64px" height="64px" viewBox="0 0 64 64" version="1.1" xmlns="http://www.w3.org/2000/svg" xmlns:xlink="http://www.w3.org/1999/xlink">
    <!-- Generator: Sketch 47.1 (45422) - http://www.bohemiancoding.com/sketch -->
    <title>05</title>
    <desc>Created with Sketch.</desc>
    <defs></defs>
    <g id="Page-1" stroke="none" stroke-width="1" fill="none" fill-rule="evenodd">
        <g id="Useful-Outline-Icons" transform="translate(-797.000000, -210.000000)" fill="#666666">
            <path d="M829.002,274 C837.55,274 845.585,270.671 851.629,264.627 C857.673,258.584 861.002,250.548 861.002,242 C861.002,233.453 857.673,225.418 851.629,219.374 C845.585,213.33 837.55,210.001 829.002,210.001 C820.455,210.001 812.419,213.33 806.376,219.374 C800.332,225.418 797.003,233.453 797.003,242 C797.003,250.548 800.332,258.584 806.376,264.627 C812.419,270.671 820.455,274 829.002,274 L829.002,274 Z M809.205,222.202 C814.492,216.913 821.523,214.001 829.002,214.001 C836.481,214.001 843.512,216.913 848.8,222.203 C854.089,227.49 857.002,234.521 857.002,242 C857.002,249.479 854.089,256.511 848.8,261.799 C843.512,267.088 836.481,270 829.002,270 C821.523,270 814.492,267.088 809.204,261.798 C803.915,256.511 801.003,249.479 801.003,242 C801.003,234.521 803.915,227.49 809.205,222.202 L809.205,222.202 Z M820.939,258 L821.002,258 C821.545,258 822.066,257.779 822.444,257.387 L847.444,231.387 C848.209,230.59 848.185,229.324 847.388,228.559 C846.591,227.793 845.326,227.818 844.56,228.614 L821.097,253.016 L811.529,241.709 C810.815,240.865 809.554,240.76 808.71,241.474 C807.867,242.187 807.762,243.449 808.476,244.292 L819.475,257.293 C819.841,257.725 820.373,258 820.939,258 L820.939,258 Z" id="05"></path>
        </g>
    </g>
</svg>