<?xml version="1.0" encoding="UTF-8"?>
<svg width="24px" height="24px" viewBox="0 0 24 24" version="1.1" xmlns="http://www.w3.org/2000/svg" xmlns:xlink="http://www.w3.org/1999/xlink">
    <!-- Generator: Sketch 47.1 (45422) - http://www.bohemiancoding.com/sketch -->
    <title>close</title>
    <desc>Created with Sketch.</desc>
    <defs></defs>
    <g id="Page-1" stroke="none" stroke-width="1" fill="none" fill-rule="evenodd">
        <g id="close" transform="translate(1.000000, 1.000000)" fill-rule="nonzero" fill="#000000">
            <g id="Page-1" transform="translate(-0.000000, -0.000000)">
                <path d="M22.2668672,21.1418405 C22.5777487,21.4527239 22.5777487,21.9564529 22.2673194,22.2664856 C22.1163841,22.4178087 21.9136956,22.5 21.7043171,22.5 C21.495197,22.5 21.2927234,22.4178958 21.1417672,22.2669386 L11.0000185,12.1251388 L0.858269883,22.2669385 C0.707313361,22.4178959 0.504839889,22.5 0.295719884,22.5 C0.0865018084,22.5 -0.115983647,22.4179336 -0.266977774,22.2669386 C-0.577636363,21.9562785 -0.577636363,21.4528983 -0.266975296,21.1418378 L9.87491732,11.000037 L-0.267203915,0.858007286 C-0.577636383,0.547175771 -0.577636383,0.0437954472 -0.266977786,-0.266864716 C0.043867695,-0.577711762 0.547424269,-0.577711762 0.858269749,-0.266864715 L11.0000185,9.87493514 L21.141541,-0.2666384 C21.4522903,-0.577787174 21.9563436,-0.577787174 22.2666408,-0.267090798 C22.5777487,0.0436209959 22.5777487,0.547350156 22.266867,0.858233561 L12.1251146,11.000037 L22.2668672,21.1418405 Z M11.2891373,11.000037 L11.0000189,10.7109212 L10.8554616,10.8554793 L10.7109046,11.000037 L10.8554616,11.1445946 L11.0000189,11.2891528 L11.2891373,11.000037 Z" id="Fill-1"></path>
            </g>
        </g>
    </g>
</svg>