<?xml version="1.0" encoding="UTF-8"?>
<svg width="39px" height="39px" viewBox="0 0 39 39" version="1.1" xmlns="http://www.w3.org/2000/svg" xmlns:xlink="http://www.w3.org/1999/xlink">
    <!-- Generator: Sketch 47.1 (45422) - http://www.bohemiancoding.com/sketch -->
    <title>3B</title>
    <desc>Created with Sketch.</desc>
    <defs></defs>
    <g id="Page-1" stroke="none" stroke-width="1" fill="none" fill-rule="evenodd">
        <g id="FREE100icons" transform="translate(-302.000000, -301.000000)" fill="#CF000F">
            <g id="B" transform="translate(15.000000, 299.000000)">
                <path d="M312.568,15.473 C311.982,14.887 311.033,14.887 310.447,15.473 L306.676,19.244 L302.905,15.473 C302.319,14.887 301.37,14.887 300.784,15.473 C300.198,16.059 300.198,17.009 300.784,17.594 L304.555,21.365 L300.784,25.137 C300.198,25.722 300.198,26.672 300.784,27.258 C301.077,27.551 301.46,27.697 301.844,27.697 C302.228,27.697 302.612,27.551 302.905,27.258 L306.676,23.486 L310.447,27.258 C310.74,27.551 311.124,27.697 311.508,27.697 C311.892,27.697 312.275,27.551 312.568,27.258 C313.154,26.672 313.154,25.722 312.568,25.137 L308.797,21.365 L312.568,17.594 C313.154,17.009 313.154,16.059 312.568,15.473 M306.676,37.616 C297.716,37.616 290.426,30.326 290.426,21.366 C290.426,12.405 297.716,5.116 306.676,5.116 C315.637,5.116 322.926,12.405 322.926,21.366 C322.926,30.326 315.637,37.616 306.676,37.616 Z M306.676,2.116 C296.062,2.116 287.426,10.751 287.426,21.366 C287.426,31.98 296.062,40.616 306.676,40.616 C317.291,40.616 325.926,31.98 325.926,21.366 C325.926,10.751 317.291,2.116 306.676,2.116 L306.676,2.116 Z" id="3B"></path>
            </g>
        </g>
    </g>
</svg>