<?xml version="1.0" encoding="UTF-8"?>
<svg width="119px" height="127px" viewBox="0 0 119 127" version="1.1" xmlns="http://www.w3.org/2000/svg" xmlns:xlink="http://www.w3.org/1999/xlink">
    <!-- Generator: Sketch 48.1 (47250) - http://www.bohemiancoding.com/sketch -->
    <title>levels-1</title>
    <desc>Created with Sketch.</desc>
    <defs></defs>
    <g id="User-Interface-Icons-White" stroke="none" stroke-width="1" fill="none" fill-rule="evenodd" transform="translate(-805.000000, -2555.000000)">
        <path d="M904.972935,2555 C895.634022,2555 887.899022,2561.81653 886.372717,2570.75837 L808.324239,2570.75837 C806.565109,2570.75837 805.142283,2572.18388 805.142283,2573.94633 C805.142283,2575.70878 806.565109,2577.13429 808.324239,2577.13429 L886.346848,2577.13429 C887.873152,2586.0502 895.608152,2592.89265 904.947065,2592.89265 C915.3725,2592.89265 923.831848,2584.41735 923.831848,2573.97224 C923.831848,2563.52714 915.3725,2555 904.972935,2555 Z M904.972935,2586.49082 C898.065761,2586.49082 892.426196,2580.84061 892.426196,2573.92041 C892.426196,2567.0002 898.065761,2561.35 904.972935,2561.35 C911.880109,2561.35 917.519674,2567.0002 917.519674,2573.92041 C917.519674,2580.84061 911.880109,2586.49082 904.972935,2586.49082 Z M920.70163,2615.13061 C922.434891,2615.13061 923.857717,2616.55612 923.857717,2618.26673 C923.857717,2620.02918 922.434891,2621.45469 920.675761,2621.45469 L842.653152,2621.45469 C841.126848,2630.39653 833.391848,2637.21306 824.052935,2637.21306 C813.65337,2637.21306 805.168152,2628.73776 805.168152,2618.29265 C805.168152,2607.84755 813.6275,2599.37224 824.052935,2599.37224 C833.391848,2599.37224 841.126848,2606.21469 842.653152,2615.13061 L920.70163,2615.13061 Z M824.052935,2630.88898 C830.985978,2630.88898 836.599674,2625.23878 836.599674,2618.31857 C836.599674,2611.39837 830.960109,2605.74816 824.052935,2605.74816 C817.145761,2605.74816 811.506196,2611.39837 811.506196,2618.31857 C811.506196,2625.23878 817.145761,2630.88898 824.052935,2630.88898 Z M904.972935,2644.10735 C915.3725,2644.10735 923.831848,2652.63449 923.831848,2663.07959 C923.831848,2673.52469 915.3725,2682 904.947065,2682 C895.608152,2682 887.873152,2675.15755 886.346848,2666.24163 L808.324239,2666.24163 C806.565109,2666.24163 805.142283,2664.81612 805.142283,2663.05367 C805.142283,2661.29122 806.565109,2659.86571 808.324239,2659.86571 L886.372717,2659.86571 C887.899022,2650.92388 895.634022,2644.10735 904.972935,2644.10735 Z M904.972935,2675.59816 C911.880109,2675.59816 917.519674,2669.94796 917.519674,2663.02776 C917.519674,2656.10755 911.880109,2650.45735 904.972935,2650.45735 C898.065761,2650.45735 892.426196,2656.10755 892.426196,2663.02776 C892.426196,2669.94796 898.065761,2675.59816 904.972935,2675.59816 Z" id="levels-1" fill="#FFFFFF" fill-rule="nonzero"></path>
    </g>
</svg>