<?xml version="1.0" encoding="UTF-8"?>
<svg width="127px" height="94px" viewBox="0 0 127 94" version="1.1" xmlns="http://www.w3.org/2000/svg" xmlns:xlink="http://www.w3.org/1999/xlink">
    <!-- Generator: Sketch 48.2 (47327) - http://www.bohemiancoding.com/sketch -->
    <title>delete</title>
    <desc>Created with Sketch.</desc>
    <defs></defs>
    <g id="User-Interface-Icons-White-Dark" stroke="none" stroke-width="1" fill="none" fill-rule="evenodd" transform="translate(-1372.000000, -1109.000000)">
        <path d="M1403.83423,1194.86277 C1408.4477,1199.90034 1415.03097,1202.80862 1421.8475,1202.80862 L1478.06444,1202.80862 C1489.52036,1202.80862 1498.85097,1193.46056 1498.85097,1181.98321 L1498.85097,1129.86774 C1498.85097,1118.39039 1489.52036,1109.04233 1478.06444,1109.04233 L1421.8475,1109.04233 C1415.00505,1109.04233 1408.4477,1111.92465 1403.83423,1116.98818 L1374.8575,1148.58984 C1371.0475,1152.7705 1371.0475,1159.05448 1374.8575,1163.23514 L1403.83423,1194.86277 Z M1379.54872,1152.90034 L1408.52546,1121.27271 C1411.94668,1117.53349 1416.81934,1115.4042 1421.87342,1115.4042 L1478.09036,1115.4042 C1486.0473,1115.4042 1492.52689,1121.89592 1492.52689,1129.86774 L1492.52689,1181.95724 C1492.52689,1189.92907 1486.0473,1196.42078 1478.09036,1196.42078 L1421.8475,1196.42078 C1416.79342,1196.42078 1411.92077,1194.2915 1408.49954,1190.55227 L1379.54872,1158.92465 C1377.9677,1157.21083 1377.9677,1154.61415 1379.54872,1152.90034 Z M1430.42648,1172.81691 C1431.04852,1173.44012 1431.85199,1173.75172 1432.68138,1173.75172 C1433.51077,1173.75172 1434.31423,1173.44012 1434.93628,1172.81691 L1447.32526,1160.40476 L1459.71423,1172.81691 C1460.33628,1173.44012 1461.13974,1173.75172 1461.96913,1173.75172 C1462.79852,1173.75172 1463.60199,1173.44012 1464.22403,1172.81691 C1465.46811,1171.5705 1465.46811,1169.57106 1464.22403,1168.32465 L1451.80913,1155.91249 L1464.19811,1143.50034 C1465.44219,1142.25393 1465.44219,1140.25448 1464.19811,1139.00807 C1462.95403,1137.76166 1460.95832,1137.76166 1459.71423,1139.00807 L1447.32526,1151.42023 L1434.93628,1139.00807 C1433.69219,1137.76166 1431.69648,1137.76166 1430.4524,1139.00807 C1429.20832,1140.25448 1429.20832,1142.25393 1430.4524,1143.50034 L1442.84138,1155.91249 L1430.4524,1168.32465 C1429.20832,1169.57106 1429.20832,1171.57024 1430.42648,1172.81691 Z" id="delete" fill="#A94442" fill-rule="nonzero"></path>
    </g>
</svg>