<?xml version="1.0" encoding="UTF-8"?>
<svg width="40px" height="41px" viewBox="0 0 40 41" version="1.1" xmlns="http://www.w3.org/2000/svg" xmlns:xlink="http://www.w3.org/1999/xlink">
    <!-- Generator: Sketch 47.1 (45422) - http://www.bohemiancoding.com/sketch -->
    <title>6I</title>
    <desc>Created with Sketch.</desc>
    <defs></defs>
    <g id="Page-1" stroke="none" stroke-width="1" fill="none" fill-rule="evenodd">
        <g id="FREE100icons" transform="translate(-733.000000, -1306.000000)" fill="#FFFFFF">
            <g id="I" transform="translate(11.000000, 1304.000000)">
                <path d="M745.21,39.51 C747.083,36.61 749.489,31.53 749.886,24.29 L758.338,24.29 C757.696,31.86 752.271,38.02 745.21,39.51 Z M725.469,24.29 L734.029,24.29 C734.419,31.65 736.717,36.64 738.551,39.5 C731.513,38 726.109,31.84 725.469,24.29 Z M738.452,6.12 C736.527,9.01 734.164,14.03 733.991,21.29 L725.469,21.29 C726.105,13.79 731.463,7.66 738.452,6.12 Z M736.984,21.29 C737.19,13.47 740.258,8.56 741.898,6.49 C743.561,8.59 746.688,13.56 746.928,21.29 L736.984,21.29 Z M741.887,39.03 C740.318,36.93 737.491,32.11 737.034,24.29 L746.882,24.29 C746.417,31.9 743.487,36.86 741.887,39.03 Z M758.338,21.29 L749.92,21.29 C749.718,14.11 747.282,9.03 745.331,6.11 C752.332,7.64 757.7,13.78 758.338,21.29 Z M741.921,2.73 C741.918,2.73 741.915,2.73 741.912,2.73 C741.909,2.73 741.906,2.73 741.903,2.73 C731.146,2.73 722.395,11.73 722.395,22.79 C722.395,33.86 731.146,42.86 741.903,42.86 C752.66,42.86 761.411,33.86 761.411,22.79 C761.411,11.74 752.67,2.74 741.921,2.73 L741.921,2.73 Z" id="6I"></path>
            </g>
        </g>
    </g>
</svg>