<?xml version="1.0" encoding="UTF-8"?>
<svg width="459px" height="294px" viewBox="0 0 459 294" version="1.1" xmlns="http://www.w3.org/2000/svg" xmlns:xlink="http://www.w3.org/1999/xlink">
    <!-- Generator: Sketch 47.1 (45422) - http://www.bohemiancoding.com/sketch -->
    <title>google-plus</title>
    <desc>Created with Sketch.</desc>
    <defs>
        <polygon id="path-1" points="0.06 0.79238954 0.06 293.94 293.153 293.94 293.153 0.79238954"></polygon>
    </defs>
    <g id="Page-1" stroke="none" stroke-width="1" fill="none" fill-rule="evenodd">
        <g id="google-plus">
            <g id="Group-3">
                <mask id="mask-2" fill="white">
                    <use xlink:href="#path-1"></use>
                </mask>
                <g id="Clip-2"></g>
                <path d="M160.777,177.641 L232.371,177.641 C219.804,213.171 185.768,238.645 145.921,238.351 C97.572,237.994 57.594,199.316 55.717,151.002 C53.705,99.213 95.254,56.439 146.604,56.439 C170.083,56.439 191.509,65.385 207.662,80.044 C211.488,83.517 217.312,83.539 221.075,79.997 L247.371,55.248 C251.483,51.377 251.498,44.84 247.398,40.956 C221.781,16.687 187.417,1.56 149.522,0.82 C68.696,-0.758 0.567,65.511 0.004,146.351 C-0.564,227.798 65.289,294 146.604,294 C224.803,294 288.685,232.771 292.964,155.642 C293.078,154.675 293.153,121.994 293.153,121.994 L160.777,121.994 C155.351,121.994 150.953,126.392 150.953,131.818 L150.953,167.817 C150.953,173.243 155.352,177.641 160.777,177.641" id="Fill-1" fill="#FFFFFF" mask="url(#mask-2)"></path>
            </g>
            <path d="M414.464,125.263 L414.464,90.09 C414.464,85.335 410.61,81.481 405.855,81.481 L376.251,81.481 C371.496,81.481 367.642,85.335 367.642,90.09 L367.642,125.263 L332.469,125.263 C327.714,125.263 323.86,129.117 323.86,133.872 L323.86,163.476 C323.86,168.231 327.714,172.085 332.469,172.085 L367.642,172.085 L367.642,207.258 C367.642,212.013 371.496,215.867 376.251,215.867 L405.855,215.867 C410.61,215.867 414.464,212.013 414.464,207.258 L414.464,172.085 L449.637,172.085 C454.392,172.085 458.246,168.231 458.246,163.476 L458.246,133.872 C458.246,129.117 454.392,125.263 449.637,125.263 L414.464,125.263" id="Fill-4" fill="#FFFFFF"></path>
        </g>
    </g>
</svg>