<?xml version="1.0" encoding="UTF-8"?>
<svg width="47px" height="41px" viewBox="0 0 47 41" version="1.1" xmlns="http://www.w3.org/2000/svg" xmlns:xlink="http://www.w3.org/1999/xlink">
    <!-- Generator: Sketch 47.1 (45422) - http://www.bohemiancoding.com/sketch -->
    <title>5I</title>
    <desc>Created with Sketch.</desc>
    <defs></defs>
    <g id="Page-1" stroke="none" stroke-width="1" fill="none" fill-rule="evenodd">
        <g id="FREE100icons" transform="translate(-586.000000, -1308.000000)" fill="#FFFFFF">
            <g id="I" transform="translate(11.000000, 1304.000000)">
                <path d="M618.437,33.78 L607.826,40.41 L607.826,15.11 L618.437,8.55 L618.437,33.78 Z M578.612,15.33 L589.555,8.55 L589.555,34.17 L578.612,40.51 L578.612,15.33 Z M592.555,8.34 L604.826,14.8 L604.826,40.62 L592.555,34.13 L592.555,8.34 Z M620.667,4.55 C620.192,4.28 619.61,4.29 619.148,4.58 L606.598,12.35 L591.754,4.53 C591.74,4.52 591.725,4.52 591.711,4.51 C591.62,4.47 591.525,4.43 591.424,4.41 C591.408,4.4 591.393,4.4 591.376,4.39 C591.273,4.37 591.166,4.36 591.055,4.36 C591.045,4.36 591.035,4.36 591.025,4.36 C590.995,4.36 590.965,4.37 590.935,4.37 C590.845,4.38 590.758,4.39 590.673,4.41 C590.638,4.42 590.604,4.43 590.569,4.44 C590.482,4.47 590.4,4.51 590.322,4.56 C590.303,4.57 590.283,4.57 590.265,4.58 L576.322,13.22 C575.881,13.5 575.612,13.98 575.612,14.5 L575.612,43.11 C575.612,43.65 575.898,44.15 576.363,44.41 C576.828,44.68 577.399,44.68 577.864,44.41 L591.088,36.75 L605.625,44.44 C605.64,44.45 605.657,44.45 605.673,44.46 C605.746,44.49 605.823,44.52 605.902,44.55 C605.933,44.55 605.961,44.57 605.992,44.57 C606.1,44.6 606.211,44.61 606.326,44.61 C606.455,44.61 606.577,44.59 606.696,44.56 C606.728,44.55 606.757,44.54 606.788,44.53 C606.889,44.5 606.984,44.46 607.073,44.41 C607.088,44.4 607.106,44.4 607.121,44.39 L620.731,35.89 C621.17,35.61 621.437,35.13 621.437,34.61 L621.437,5.86 C621.437,5.31 621.143,4.81 620.667,4.55 L620.667,4.55 Z" id="5I"></path>
            </g>
        </g>
    </g>
</svg>