<?xml version="1.0" encoding="UTF-8"?>
<svg width="35px" height="28px" viewBox="0 0 35 28" version="1.1" xmlns="http://www.w3.org/2000/svg" xmlns:xlink="http://www.w3.org/1999/xlink">
    <!-- Generator: Sketch 48.2 (47327) - http://www.bohemiancoding.com/sketch -->
    <title>1A</title>
    <desc>Created with Sketch.</desc>
    <defs></defs>
    <g id="Page-1" stroke="none" stroke-width="1" fill="none" fill-rule="evenodd">
        <g id="FREE100icons" transform="translate(-16.000000, -163.000000)" fill="#FFFFFF">
            <g id="A" transform="translate(16.000000, 154.000000)">
                <path d="M33.187,21.438 L6.097,21.438 L16.113,11.608 C16.704,11.027 16.713,10.078 16.133,9.486 C15.551,8.895 14.602,8.887 14.011,9.466 L1.407,21.836 C1.121,22.117 0.959,22.5 0.958,22.9 C0.956,23.3 1.114,23.685 1.397,23.968 L14.022,36.593 C14.315,36.886 14.699,37.032 15.083,37.032 C15.466,37.032 15.85,36.886 16.143,36.593 C16.729,36.007 16.729,35.057 16.143,34.472 L6.109,24.438 L33.187,24.438 C34.015,24.438 34.687,23.766 34.687,22.938 C34.687,22.109 34.015,21.438 33.187,21.438" id="1A" transform="translate(17.822491, 23.034594) rotate(-180.000000) translate(-17.822491, -23.034594) "></path>
            </g>
        </g>
    </g>
</svg>