<?xml version="1.0" encoding="UTF-8"?>
<svg width="128px" height="148px" viewBox="0 0 128 148" version="1.1" xmlns="http://www.w3.org/2000/svg" xmlns:xlink="http://www.w3.org/1999/xlink">
    <!-- Generator: Sketch 47.1 (45422) - http://www.bohemiancoding.com/sketch -->
    <title>Group 5</title>
    <desc>Created with Sketch.</desc>
    <defs></defs>
    <g id="Page-1" stroke="none" stroke-width="1" fill="none" fill-rule="evenodd">
        <g id="Group-5" fill-rule="nonzero">
            <path d="M125.805293,4.13392114 C124.120599,1.6198395 121.373252,0.142492565 118.418558,0.142492565 C117.252232,0.142492565 116.111824,0.375757871 114.997334,0.842288483 L34.2357011,34.0437171 C30.7626398,35.4692273 28.6114154,38.8126966 28.7150888,42.5708599 C28.8187623,46.3290232 31.2032521,49.5169824 34.7540684,50.7351456 L66.0375378,61.413513 L76.7418235,92.6969824 C77.9859052,96.3514722 81.3034562,98.735962 85.1912113,98.735962 C88.8716194,98.735962 92.0336603,96.6106558 93.4332521,93.2153497 L126.634681,12.4537171 C127.775089,9.65453338 127.489987,6.6220844 125.805293,4.13392114 Z M120.751211,10.0433089 L87.5238643,90.8049415 C86.9277419,92.2304517 85.6836603,92.385962 85.1652929,92.385962 C84.7246807,92.385962 83.2732521,92.2563701 82.7289664,90.6494313 L71.5322317,57.888615 C71.2212113,56.9555538 70.495497,56.2298395 69.5624358,55.9188191 L36.8016194,44.7220844 C35.2465174,44.1777987 35.0910072,42.7782069 35.0650888,42.363513 C35.0650888,41.9488191 35.1169256,40.5492273 36.6461092,39.9012681 L117.407742,6.6998395 C117.744681,6.57024767 118.081619,6.49249256 118.418558,6.49249256 C119.247946,6.49249256 120.051415,6.93310481 120.543864,7.68473746 C120.880803,8.17718644 121.191824,8.98065583 120.751211,10.0433089 Z M48.0501909,74.9169824 C49.2942725,73.6729007 51.2899868,73.6729007 52.5340684,74.9169824 C53.77815,76.161064 53.77815,78.1567783 52.5340684,79.4008599 L8.13590515,123.824942 C7.51386433,124.446982 6.71039495,124.758003 5.88100719,124.758003 C5.05161944,124.758003 4.24815005,124.446982 3.62610923,123.824942 C2.3820276,122.58086 2.3820276,120.585146 3.62610923,119.341064 L48.0501909,74.9169824 Z M1.31937454,84.8696354 L17.4146807,68.8002477 C18.6587623,67.556166 20.6544766,67.556166 21.8985582,68.8002477 C23.1426398,70.0443293 23.1426398,72.0400436 21.8985582,73.2841252 L5.82917046,89.353513 C5.20712964,89.9755538 4.40366025,90.2865742 3.5742725,90.2865742 C2.74488474,90.2865742 1.94141535,89.9755538 1.31937454,89.353513 C0.0752929052,88.1094313 0.0752929052,86.1137171 1.31937454,84.8696354 Z M38.0975378,126.105758 C36.8534562,124.887595 36.8534562,122.865962 38.1234562,121.62188 L54.1928439,105.552493 C55.4369256,104.308411 57.4326398,104.308411 58.6767215,105.552493 C59.9208031,106.796574 59.9208031,108.792288 58.6767215,110.03637 L42.6073337,126.105758 C41.9852929,126.727799 41.1818235,127.038819 40.3524358,127.038819 C39.523048,127.038819 38.7195786,126.727799 38.0975378,126.105758 Z" id="orientation-copy" fill="#0099CD"></path>
            <path d="M125.805293,24.1339211 C124.120599,21.6198395 121.373252,20.1424926 118.418558,20.1424926 C117.252232,20.1424926 116.111824,20.3757579 114.997334,20.8422885 L34.2357011,54.0437171 C30.7626398,55.4692273 28.6114154,58.8126966 28.7150888,62.5708599 C28.8187623,66.3290232 31.2032521,69.5169824 34.7540684,70.7351456 L66.0375378,81.413513 L76.7418235,112.696982 C77.9859052,116.351472 81.3034562,118.735962 85.1912113,118.735962 C88.8716194,118.735962 92.0336603,116.610656 93.4332521,113.21535 L126.634681,32.4537171 C127.775089,29.6545334 127.489987,26.6220844 125.805293,24.1339211 Z M120.751211,30.0433089 L87.5238643,110.804942 C86.9277419,112.230452 85.6836603,112.385962 85.1652929,112.385962 C84.7246807,112.385962 83.2732521,112.25637 82.7289664,110.649431 L71.5322317,77.888615 C71.2212113,76.9555538 70.495497,76.2298395 69.5624358,75.9188191 L36.8016194,64.7220844 C35.2465174,64.1777987 35.0910072,62.7782069 35.0650888,62.363513 C35.0650888,61.9488191 35.1169256,60.5492273 36.6461092,59.9012681 L117.407742,26.6998395 C117.744681,26.5702477 118.081619,26.4924926 118.418558,26.4924926 C119.247946,26.4924926 120.051415,26.9331048 120.543864,27.6847375 C120.880803,28.1771864 121.191824,28.9806558 120.751211,30.0433089 Z M48.0501909,94.9169824 C49.2942725,93.6729007 51.2899868,93.6729007 52.5340684,94.9169824 C53.77815,96.161064 53.77815,98.1567783 52.5340684,99.4008599 L8.13590515,143.824942 C7.51386433,144.446982 6.71039495,144.758003 5.88100719,144.758003 C5.05161944,144.758003 4.24815005,144.446982 3.62610923,143.824942 C2.3820276,142.58086 2.3820276,140.585146 3.62610923,139.341064 L48.0501909,94.9169824 Z M1.31937454,104.869635 L17.4146807,88.8002477 C18.6587623,87.556166 20.6544766,87.556166 21.8985582,88.8002477 C23.1426398,90.0443293 23.1426398,92.0400436 21.8985582,93.2841252 L5.82917046,109.353513 C5.20712964,109.975554 4.40366025,110.286574 3.5742725,110.286574 C2.74488474,110.286574 1.94141535,109.975554 1.31937454,109.353513 C0.0752929052,108.109431 0.0752929052,106.113717 1.31937454,104.869635 Z M38.0975378,146.105758 C36.8534562,144.887595 36.8534562,142.865962 38.1234562,141.62188 L54.1928439,125.552493 C55.4369256,124.308411 57.4326398,124.308411 58.6767215,125.552493 C59.9208031,126.796574 59.9208031,128.792288 58.6767215,130.03637 L42.6073337,146.105758 C41.9852929,146.727799 41.1818235,147.038819 40.3524358,147.038819 C39.523048,147.038819 38.7195786,146.727799 38.0975378,146.105758 Z" id="orientation-copy" fill="#D8232A"></path>
        </g>
    </g>
</svg>