<?xml version="1.0" encoding="UTF-8"?>
<svg width="128px" height="122px" viewBox="0 0 128 122" version="1.1" xmlns="http://www.w3.org/2000/svg" xmlns:xlink="http://www.w3.org/1999/xlink">
    <!-- Generator: Sketch 47.1 (45422) - http://www.bohemiancoding.com/sketch -->
    <title>star</title>
    <desc>Created with Sketch.</desc>
    <defs></defs>
    <g id="Page-1" stroke="none" stroke-width="1" fill="none" fill-rule="evenodd">
        <path d="M117.82085,39.0712154 L86.8597506,36.8341151 C86.2131111,36.7820896 85.6440683,36.3918977 85.4112781,35.7675906 L73.6165734,6.89339019 C71.9870418,2.91343284 68.3141294,0.442217484 64.020443,0.442217484 C59.7267567,0.442217484 56.0797098,2.91343284 54.4243127,6.91940299 L42.6037424,35.8196162 C42.3450866,36.4179104 41.8019094,36.8341151 41.1552699,36.8861407 L10.2459013,39.1232409 C6.05567725,39.3573561 2.48622715,42.1147122 1.11535138,46.1727079 C-0.281389961,50.2827292 0.882561159,54.6008529 4.19335546,57.4362473 L28.1190174,77.3100213 C28.6104634,77.726226 28.8432536,78.4025586 28.6880601,79.0268657 L21.3939665,109.045629 C20.5404023,112.167164 21.1353106,115.392751 23.023498,117.915991 C24.9634166,120.465245 27.9896895,122 31.1711559,122 C33.13694,122 35.0509929,121.401706 36.6287933,120.335181 L62.7788952,103.973134 C63.3220724,103.634968 64.020443,103.634968 64.5636202,103.973134 L90.9723779,120.283156 C92.627775,121.401706 94.541828,122 96.4817465,122 C99.4562882,122 102.404964,120.569296 104.319017,118.150107 C106.310667,115.652878 107.034903,112.401279 106.310667,109.14968 L98.9907078,79.0528785 C98.8355143,78.4025586 99.0683045,77.726226 99.5597506,77.3100213 L123.847531,57.3842217 C127.106594,54.5748401 128.270545,50.2567164 126.899669,46.1466951 C125.554659,42.0886994 121.959343,39.3053305 117.82085,39.0712154 Z" id="star" fill="#0099CD" fill-rule="nonzero"></path>
    </g>
</svg>