<?xml version="1.0" encoding="UTF-8"?>
<svg width="128px" height="127px" viewBox="0 0 128 127" version="1.1" xmlns="http://www.w3.org/2000/svg" xmlns:xlink="http://www.w3.org/1999/xlink">
    <!-- Generator: Sketch 47.1 (45422) - http://www.bohemiancoding.com/sketch -->
    <title>check</title>
    <desc>Created with Sketch.</desc>
    <defs></defs>
    <g id="Page-1" stroke="none" stroke-width="1" fill="none" fill-rule="evenodd">
        <g id="User-Interface-Icons-White-Dark" transform="translate(-516.000000, -553.000000)" fill-rule="nonzero" fill="#999999">
            <path d="M629.768217,553 L529.567809,553 C522.181074,553 516.193931,559.013061 516.193931,566.373878 L516.193931,666.574286 C516.193931,673.96102 522.206993,679.948163 529.567809,679.948163 L629.768217,679.948163 C637.154952,679.948163 643.142095,673.935102 643.142095,666.574286 L643.142095,566.373878 C643.142095,559.013061 637.129033,553 629.768217,553 Z M636.792095,666.574286 C636.792095,670.436122 633.630054,673.598163 629.768217,673.598163 L529.567809,673.598163 C525.705972,673.598163 522.543931,670.436122 522.543931,666.574286 L522.543931,566.373878 C522.543931,562.512041 525.705972,559.35 529.567809,559.35 L629.768217,559.35 C633.630054,559.35 636.792095,562.512041 636.792095,566.373878 L636.792095,666.574286 L636.792095,666.574286 Z M599.003115,599.108776 L570.82985,627.100612 L560.332911,616.551837 C559.088829,615.307755 557.093115,615.307755 555.849033,616.551837 C554.604952,617.795918 554.604952,619.791633 555.849033,621.035714 L568.574952,633.839388 C569.171074,634.43551 569.974544,634.772449 570.82985,634.772449 C571.659238,634.772449 572.462707,634.43551 573.058829,633.839388 L603.486993,603.592653 C604.731074,602.348571 604.731074,600.352857 603.486993,599.108776 C602.242911,597.864694 600.247197,597.864694 599.003115,599.108776 Z" id="check"></path>
        </g>
    </g>
</svg>