<?xml version="1.0" encoding="UTF-8"?>
<svg width="128px" height="127px" viewBox="0 0 128 127" version="1.1" xmlns="http://www.w3.org/2000/svg" xmlns:xlink="http://www.w3.org/1999/xlink">
    <!-- Generator: Sketch 47.1 (45422) - http://www.bohemiancoding.com/sketch -->
    <title>check</title>
    <desc>Created with Sketch.</desc>
    <defs></defs>
    <g id="Page-1" stroke="none" stroke-width="1" fill="none" fill-rule="evenodd">
        <g id="User-Interface-Icons-White-Dark" transform="translate(-516.000000, -426.000000)" fill-rule="nonzero" fill="#999999">
            <path d="M629.768217,426 L529.567809,426 C522.181074,426 516.193931,432.013061 516.193931,439.373878 L516.193931,539.574286 C516.193931,546.96102 522.206993,552.948163 529.567809,552.948163 L629.768217,552.948163 C637.154952,552.948163 643.142095,546.935102 643.142095,539.574286 L643.142095,439.373878 C643.142095,432.013061 637.129033,426 629.768217,426 Z M636.792095,539.574286 C636.792095,543.436122 633.630054,546.598163 629.768217,546.598163 L529.567809,546.598163 C525.705972,546.598163 522.543931,543.436122 522.543931,539.574286 L522.543931,439.373878 C522.543931,435.512041 525.705972,432.35 529.567809,432.35 L629.768217,432.35 C633.630054,432.35 636.792095,435.512041 636.792095,439.373878 L636.792095,539.574286 L636.792095,539.574286 Z" id="check"></path>
        </g>
    </g>
</svg>