<?xml version="1.0" encoding="UTF-8"?>
<svg width="47px" height="47px" viewBox="0 0 47 47" version="1.1" xmlns="http://www.w3.org/2000/svg" xmlns:xlink="http://www.w3.org/1999/xlink">
    <!-- Generator: Sketch 47.1 (45422) - http://www.bohemiancoding.com/sketch -->
    <title>2J</title>
    <desc>Created with Sketch.</desc>
    <defs></defs>
    <g id="Page-1" stroke="none" stroke-width="1" fill="none" fill-rule="evenodd">
        <g id="FREE100icons" transform="translate(-156.000000, -1447.000000)" fill="#FFFFFF">
            <g id="J" transform="translate(12.000000, 1447.000000)">
                <path d="M147.736,9.28 C147.697,9.82 147.749,11.49 149.153,15.14 L149.198,15.27 C151.071,22 164.638,36.84 172.241,40.48 C177.926,43.2 181.229,43.72 181.869,43.55 C182.601,43.26 184.736,40.7 185.647,39.61 C186.089,39.08 186.486,38.6 186.802,38.25 C187.067,37.95 187.057,37.78 187.054,37.72 C187.037,37.43 186.767,37.08 186.601,36.92 L178.961,31.74 C177.91,31.42 177.086,31.68 176.93,31.73 L171.491,34.69 L170.729,34.15 C162.41,28.28 157.279,20.27 157.064,19.93 L156.615,19.22 L156.985,18.46 C157.063,18.31 158.896,14.58 159.786,13.07 C160.014,12.68 159.654,11.49 159.192,10.73 C157.785,8.55 155.179,4.76 154.274,3.99 C153.867,3.64 153.355,3.91 153.157,4.04 C150.89,6 148.273,8.49 147.736,9.28 Z M181.595,46.56 C178.975,46.56 174.559,44.91 170.946,43.18 C162.68,39.23 148.469,23.61 146.329,16.15 C145.058,12.84 144.527,10.24 144.795,8.63 C144.878,8.13 145.052,7.09 151.254,1.71 L151.336,1.65 C152.225,0.98 154.391,0.13 156.227,1.71 C157.722,2.99 161.077,8.12 161.734,9.13 C161.954,9.49 163.662,12.41 162.369,14.6 C161.771,15.61 160.651,17.83 160.063,19.01 C161.417,20.96 165.652,26.67 171.708,31.15 L175.662,29.01 C175.869,28.92 177.758,28.11 180.136,28.97 L180.473,29.14 L188.502,34.59 C188.648,34.71 189.929,35.84 190.046,37.5 C190.094,38.19 189.958,39.22 189.038,40.25 C188.74,40.58 188.366,41.03 187.951,41.53 C185.792,44.11 184.156,45.98 182.755,46.41 C182.428,46.51 182.037,46.56 181.595,46.56 L181.595,46.56 Z" id="2J"></path>
            </g>
        </g>
    </g>
</svg>