<?xml version="1.0" encoding="UTF-8"?>
<svg width="40px" height="40px" viewBox="0 0 40 40" version="1.1" xmlns="http://www.w3.org/2000/svg" xmlns:xlink="http://www.w3.org/1999/xlink">
    <!-- Generator: Sketch 47.1 (45422) - http://www.bohemiancoding.com/sketch -->
    <title>1B</title>
    <desc>Created with Sketch.</desc>
    <defs></defs>
    <g id="Page-1" stroke="none" stroke-width="1" fill="none" fill-rule="evenodd">
        <g id="FREE100icons" transform="translate(-15.000000, -300.000000)" fill="#1A1919">
            <g id="B" transform="translate(15.000000, 299.000000)">
                <path d="M19.629,12.553 C22.944,12.588 24.367,14.989 24.687,16.341 C25.08,17.589 25.011,20.135 22.373,22.28 C21.595,22.912 21.075,23.336 20.739,23.611 L20.739,24.647 C20.739,25.476 20.067,26.147 19.239,26.147 C18.41,26.147 17.739,25.476 17.739,24.647 L17.739,22.901 C17.739,22.455 17.938,22.032 18.282,21.747 C18.282,21.747 18.746,21.361 20.48,19.952 C22.155,18.59 21.853,17.343 21.813,17.206 C21.801,17.167 21.777,17.08 21.769,17.04 C21.69,16.714 21.284,15.571 19.598,15.553 C19.586,15.553 19.575,15.553 19.563,15.553 C17.75,15.553 17.379,17.024 17.365,17.087 C17.173,17.894 16.36,18.392 15.559,18.2 C14.752,18.009 14.254,17.2 14.446,16.394 C14.763,15.06 16.239,12.553 19.561,12.553 C19.583,12.553 19.606,12.553 19.629,12.553 Z M19.431,27.459 C20.292,27.459 21.039,28.205 21.039,29.067 C21.039,29.929 20.292,30.675 19.431,30.675 C18.568,30.675 17.822,29.929 17.822,29.067 C17.822,28.205 18.568,27.459 19.431,27.459 Z M19.989,37.282 C11.028,37.282 3.739,29.993 3.739,21.032 C3.739,12.072 11.028,4.782 19.989,4.782 C28.949,4.782 36.239,12.072 36.239,21.032 C36.239,29.993 28.949,37.282 19.989,37.282 Z M19.989,1.782 C9.375,1.782 0.739,10.418 0.739,21.032 C0.739,31.646 9.375,40.282 19.989,40.282 C30.603,40.282 39.239,31.646 39.239,21.032 C39.239,10.418 30.603,1.782 19.989,1.782 L19.989,1.782 Z" id="1B"></path>
            </g>
        </g>
    </g>
</svg>